<svg width="24" height="24" viewBox="0 0 24 24" fill="none" xmlns="http://www.w3.org/2000/svg">
<path opacity="0.4" d="M19.35 5.65995L13.06 2.27C12.4 1.91 11.6 1.91 10.93 2.27L4.64001 5.65995C4.18001 5.90995 3.89999 6.39998 3.89999 6.93998C3.89999 7.47998 4.18001 7.96995 4.64001 8.21995L10.93 11.61C11.26 11.79 11.63 11.88 11.99 11.88C12.35 11.88 12.72 11.79 13.05 11.61L19.34 8.21995C19.8 7.96995 20.08 7.47998 20.08 6.93998C20.1 6.39998 19.81 5.90995 19.35 5.65995Z" fill="#1EDD31"/>
<path opacity="0.4" d="M9.89999 12.79L4.04999 9.86001C3.59999 9.63001 3.07999 9.66001 2.64999 9.92001C2.21999 10.18 1.97 10.64 1.97 11.14V16.67C1.97 17.63 2.49999 18.49 3.35999 18.92L9.20999 21.8401C9.40999 21.9401 9.63001 21.99 9.85001 21.99C10.11 21.99 10.37 21.92 10.6 21.77C11.03 21.51 11.28 21.05 11.28 20.55V15.02C11.29 14.08 10.76 13.22 9.89999 12.79Z" fill="#1EDD31"/>
<path opacity="0.4" d="M22.03 11.15V15.74C22.02 15.73 22.01 15.71 22 15.7C22 15.69 21.99 15.68 21.98 15.67C21.94 15.61 21.89 15.55 21.84 15.5C21.83 15.49 21.82 15.47 21.81 15.46C21 14.56 19.81 14 18.5 14C17.24 14 16.09 14.52 15.27 15.36C14.48 16.17 14 17.28 14 18.5C14 19.34 14.24 20.14 14.65 20.82C14.82 21.11 15.03 21.37 15.26 21.61L14.79 21.85C14.59 21.95 14.37 22 14.15 22C13.89 22 13.63 21.93 13.39 21.78C12.97 21.52 12.71 21.06 12.71 20.56V15.04C12.71 14.08 13.24 13.22 14.1 12.79L19.95 9.87C20.4 9.64 20.92 9.66 21.35 9.93C21.77 10.19 22.03 10.65 22.03 11.15Z" fill="#1EDD31"/>
<path d="M21.98 15.67C21.16 14.66 19.91 14.02 18.5 14.02C17.44 14.02 16.46 14.39 15.69 15.01C14.65 15.83 14 17.1 14 18.52C14 19.36 14.24 20.16 14.65 20.84C14.92 21.29 15.26 21.68 15.66 22H15.67C16.44 22.64 17.43 23.02 18.5 23.02C19.64 23.02 20.67 22.6 21.46 21.9C21.81 21.6 22.11 21.24 22.35 20.84C22.76 20.16 23 19.36 23 18.52C23 17.44 22.62 16.44 21.98 15.67ZM20.76 17.96L18.36 20.18C18.22 20.31 18.03 20.38 17.85 20.38C17.66 20.38 17.47 20.31 17.32 20.16L16.21 19.05C15.92 18.76 15.92 18.28 16.21 17.99C16.5 17.7 16.98 17.7 17.27 17.99L17.87 18.59L19.74 16.86C20.04 16.58 20.52 16.6 20.8 16.9C21.09 17.21 21.07 17.68 20.76 17.96Z" fill="#1EDD31"/>
</svg>
