<svg width="12" height="12" viewBox="0 0 12 12" fill="none" xmlns="http://www.w3.org/2000/svg">
<path d="M10.105 3.90997L6.255 6.13997C6.1 6.22997 5.905 6.22997 5.745 6.13997L1.895 3.90997C1.62 3.74997 1.55 3.37497 1.76 3.13997C1.905 2.97497 2.07 2.83997 2.245 2.74497L4.955 1.24497C5.535 0.919971 6.475 0.919971 7.055 1.24497L9.765 2.74497C9.94 2.83997 10.105 2.97997 10.25 3.13997C10.45 3.37497 10.38 3.74997 10.105 3.90997Z" fill="#617986"/>
<path d="M5.71501 7.06994V10.4799C5.71501 10.8599 5.33001 11.1099 4.99001 10.9449C3.96001 10.4399 2.22501 9.49494 2.22501 9.49494C1.61501 9.14994 1.11501 8.27994 1.11501 7.56494V4.98494C1.11501 4.58994 1.53001 4.33994 1.87001 4.53494L5.46501 6.61994C5.61501 6.71494 5.71501 6.88494 5.71501 7.06994Z" fill="#617986"/>
<path d="M6.285 7.06994V10.4799C6.285 10.8599 6.67 11.1099 7.01 10.9449C8.04 10.4399 9.775 9.49494 9.775 9.49494C10.385 9.14994 10.885 8.27994 10.885 7.56494V4.98494C10.885 4.58994 10.47 4.33994 10.13 4.53494L6.535 6.61994C6.385 6.71494 6.285 6.88494 6.285 7.06994Z" fill="#617986"/>
</svg>
