<svg width="20" height="20" viewBox="0 0 20 20" fill="none" xmlns="http://www.w3.org/2000/svg">
<path d="M13.9583 2.96675V1.66675C13.9583 1.32508 13.675 1.04175 13.3333 1.04175C12.9917 1.04175 12.7083 1.32508 12.7083 1.66675V2.91675H7.29165V1.66675C7.29165 1.32508 7.00832 1.04175 6.66665 1.04175C6.32499 1.04175 6.04165 1.32508 6.04165 1.66675V2.96675C3.79165 3.17508 2.69999 4.51675 2.53332 6.50841C2.51665 6.75008 2.71665 6.95008 2.94999 6.95008H17.05C17.2917 6.95008 17.4917 6.74175 17.4667 6.50841C17.3 4.51675 16.2083 3.17508 13.9583 2.96675Z" fill="#06161C"/>
<path d="M16.6667 8.19995H3.33333C2.875 8.19995 2.5 8.57495 2.5 9.03328V14.1666C2.5 16.6666 3.75 18.3333 6.66667 18.3333H13.3333C16.25 18.3333 17.5 16.6666 17.5 14.1666V9.03328C17.5 8.57495 17.125 8.19995 16.6667 8.19995ZM7.675 15.175C7.63333 15.2083 7.59167 15.25 7.55 15.275C7.5 15.3083 7.45 15.3333 7.4 15.35C7.35 15.375 7.3 15.3916 7.25 15.4C7.19167 15.4083 7.14167 15.4166 7.08333 15.4166C6.975 15.4166 6.86667 15.3916 6.76667 15.35C6.65833 15.3083 6.575 15.25 6.49167 15.175C6.34167 15.0166 6.25 14.8 6.25 14.5833C6.25 14.3666 6.34167 14.15 6.49167 13.9916C6.575 13.9166 6.65833 13.8583 6.76667 13.8166C6.91667 13.75 7.08333 13.7333 7.25 13.7666C7.3 13.775 7.35 13.7916 7.4 13.8166C7.45 13.8333 7.5 13.8583 7.55 13.8916C7.59167 13.925 7.63333 13.9583 7.675 13.9916C7.825 14.15 7.91667 14.3666 7.91667 14.5833C7.91667 14.8 7.825 15.0166 7.675 15.175ZM7.675 12.2583C7.51667 12.4083 7.3 12.5 7.08333 12.5C6.86667 12.5 6.65 12.4083 6.49167 12.2583C6.34167 12.1 6.25 11.8833 6.25 11.6666C6.25 11.45 6.34167 11.2333 6.49167 11.075C6.725 10.8416 7.09167 10.7666 7.4 10.9C7.50833 10.9416 7.6 11 7.675 11.075C7.825 11.2333 7.91667 11.45 7.91667 11.6666C7.91667 11.8833 7.825 12.1 7.675 12.2583ZM10.5917 15.175C10.4333 15.325 10.2167 15.4166 10 15.4166C9.78333 15.4166 9.56667 15.325 9.40833 15.175C9.25833 15.0166 9.16667 14.8 9.16667 14.5833C9.16667 14.3666 9.25833 14.15 9.40833 13.9916C9.71667 13.6833 10.2833 13.6833 10.5917 13.9916C10.7417 14.15 10.8333 14.3666 10.8333 14.5833C10.8333 14.8 10.7417 15.0166 10.5917 15.175ZM10.5917 12.2583C10.55 12.2916 10.5083 12.325 10.4667 12.3583C10.4167 12.3916 10.3667 12.4166 10.3167 12.4333C10.2667 12.4583 10.2167 12.475 10.1667 12.4833C10.1083 12.4916 10.0583 12.5 10 12.5C9.78333 12.5 9.56667 12.4083 9.40833 12.2583C9.25833 12.1 9.16667 11.8833 9.16667 11.6666C9.16667 11.45 9.25833 11.2333 9.40833 11.075C9.48333 11 9.575 10.9416 9.68333 10.9C9.99167 10.7666 10.3583 10.8416 10.5917 11.075C10.7417 11.2333 10.8333 11.45 10.8333 11.6666C10.8333 11.8833 10.7417 12.1 10.5917 12.2583ZM13.5083 15.175C13.35 15.325 13.1333 15.4166 12.9167 15.4166C12.7 15.4166 12.4833 15.325 12.325 15.175C12.175 15.0166 12.0833 14.8 12.0833 14.5833C12.0833 14.3666 12.175 14.15 12.325 13.9916C12.6333 13.6833 13.2 13.6833 13.5083 13.9916C13.6583 14.15 13.75 14.3666 13.75 14.5833C13.75 14.8 13.6583 15.0166 13.5083 15.175ZM13.5083 12.2583C13.4667 12.2916 13.425 12.325 13.3833 12.3583C13.3333 12.3916 13.2833 12.4166 13.2333 12.4333C13.1833 12.4583 13.1333 12.475 13.0833 12.4833C13.025 12.4916 12.9667 12.5 12.9167 12.5C12.7 12.5 12.4833 12.4083 12.325 12.2583C12.175 12.1 12.0833 11.8833 12.0833 11.6666C12.0833 11.45 12.175 11.2333 12.325 11.075C12.4083 11 12.4917 10.9416 12.6 10.9C12.75 10.8333 12.9167 10.8166 13.0833 10.85C13.1333 10.8583 13.1833 10.875 13.2333 10.9C13.2833 10.9166 13.3333 10.9416 13.3833 10.975C13.425 11.0083 13.4667 11.0416 13.5083 11.075C13.6583 11.2333 13.75 11.45 13.75 11.6666C13.75 11.8833 13.6583 12.1 13.5083 12.2583Z" fill="#06161C"/>
</svg>
