<svg width="48" height="48" viewBox="0 0 48 48" fill="none" xmlns="http://www.w3.org/2000/svg">
<path opacity="0.4" d="M44 19.5C43.18 19.5 42.5 18.82 42.5 18V14C42.5 8.84 39.16 5.5 34 5.5H14C8.84 5.5 5.5 8.84 5.5 14V18C5.5 18.82 4.82 19.5 4 19.5C3.18 19.5 2.5 18.82 2.5 18V14C2.5 7.12 7.12 2.5 14 2.5H34C40.88 2.5 45.5 7.12 45.5 14V18C45.5 18.82 44.82 19.5 44 19.5Z" fill="#8322FF"/>
<path opacity="0.4" d="M34 45.5H14C7.12 45.5 2.5 40.88 2.5 34V30C2.5 29.18 3.18 28.5 4 28.5C4.82 28.5 5.5 29.18 5.5 30V34C5.5 39.16 8.84 42.5 14 42.5H34C39.16 42.5 42.5 39.16 42.5 34V30C42.5 29.18 43.18 28.5 44 28.5C44.82 28.5 45.5 29.18 45.5 30V34C45.5 40.88 40.88 45.5 34 45.5Z" fill="#8322FF"/>
<path d="M32.8 16.42L25.28 12.3599C24.48 11.9399 23.54 11.9399 22.74 12.3599L15.22 16.42C14.68 16.72 14.34 17.2999 14.34 17.9599C14.34 18.6199 14.68 19.1999 15.22 19.4999L22.74 23.56C23.14 23.78 23.58 23.8799 24.02 23.8799C24.46 23.8799 24.9 23.78 25.3 23.56L32.82 19.4999C33.36 19.1999 33.7 18.6199 33.7 17.9599C33.68 17.2999 33.34 16.72 32.8 16.42Z" fill="#8322FF"/>
<path d="M21.48 24.9398L14.48 21.4398C13.94 21.1798 13.32 21.1999 12.8 21.5199C12.28 21.8399 11.98 22.3799 11.98 22.9799V29.5999C11.98 30.7399 12.62 31.7799 13.64 32.2799L20.64 35.7799C20.88 35.8999 21.14 35.9598 21.42 35.9598C21.74 35.9598 22.04 35.8798 22.32 35.6998C22.84 35.3798 23.14 34.8399 23.14 34.2399V27.6199C23.14 26.4799 22.52 25.4598 21.48 24.9398Z" fill="#8322FF"/>
<path d="M35.18 21.5199C34.66 21.1999 34.04 21.1798 33.5 21.4398L26.5 24.9398C25.48 25.4598 24.84 26.4799 24.84 27.6199V34.2399C24.84 34.8399 25.14 35.3798 25.66 35.6998C25.94 35.8798 26.24 35.9598 26.56 35.9598C26.82 35.9598 27.08 35.8999 27.34 35.7799L34.34 32.2799C35.36 31.7599 36 30.7399 36 29.5999V22.9799C36 22.3799 35.7 21.8399 35.18 21.5199Z" fill="#8322FF"/>
</svg>
