<svg width="24" height="24" viewBox="0 0 24 24" fill="none" xmlns="http://www.w3.org/2000/svg">
<path d="M19.79 14.9301C17.73 16.9801 14.78 17.6101 12.19 16.8001L7.47999 21.5001C7.13999 21.8501 6.46999 22.0601 5.98999 21.9901L3.80999 21.6901C3.08999 21.5901 2.41999 20.9101 2.30999 20.1901L2.00999 18.0101C1.93999 17.5301 2.16999 16.8601 2.49999 16.5201L7.19999 11.8201C6.39999 9.22007 7.01999 6.27007 9.07999 4.22007C12.03 1.27007 16.82 1.27007 19.78 4.22007C22.74 7.17007 22.74 11.9801 19.79 14.9301Z" stroke="#8322FF" stroke-width="1.5" stroke-miterlimit="10" stroke-linecap="round" stroke-linejoin="round"/>
<path opacity="0.4" d="M6.89 17.49L9.19 19.79" stroke="#8322FF" stroke-width="1.5" stroke-miterlimit="10" stroke-linecap="round" stroke-linejoin="round"/>
<path opacity="0.4" d="M14.5 11C15.3284 11 16 10.3284 16 9.5C16 8.67157 15.3284 8 14.5 8C13.6716 8 13 8.67157 13 9.5C13 10.3284 13.6716 11 14.5 11Z" stroke="#8322FF" stroke-width="1.5" stroke-linecap="round" stroke-linejoin="round"/>
</svg>
