<svg width="50" height="49" viewBox="0 0 50 49" fill="none" xmlns="http://www.w3.org/2000/svg">
<g filter="url(#filter0_d_2517_3896)">
<path d="M39.3399 13.28C38.4799 8.94004 35.2599 7.04004 30.7799 7.04004H13.2199C7.93992 7.04004 4.41992 9.68004 4.41992 15.84V26.14C4.41992 30.58 6.23992 33.18 9.23992 34.3C9.67992 34.46 10.1599 34.6 10.6599 34.68C11.4599 34.86 12.3199 34.94 13.2199 34.94H30.7999C36.0799 34.94 39.5999 32.3 39.5999 26.14V15.84C39.5999 14.9 39.5199 14.06 39.3399 13.28ZM12.0599 24C12.0599 24.82 11.3799 25.5 10.5599 25.5C9.73992 25.5 9.05992 24.82 9.05992 24V18C9.05992 17.18 9.73992 16.5 10.5599 16.5C11.3799 16.5 12.0599 17.18 12.0599 18V24ZM21.9999 26.28C19.0799 26.28 16.7199 23.92 16.7199 21C16.7199 18.08 19.0799 15.72 21.9999 15.72C24.9199 15.72 27.2799 18.08 27.2799 21C27.2799 23.92 24.9199 26.28 21.9999 26.28ZM34.9199 24C34.9199 24.82 34.2399 25.5 33.4199 25.5C32.5999 25.5 31.9199 24.82 31.9199 24V18C31.9199 17.18 32.5999 16.5 33.4199 16.5C34.2399 16.5 34.9199 17.18 34.9199 18V24Z" fill="#8322FF"/>
<path d="M45.6 21.8401V32.1401C45.6 38.3001 42.08 40.9601 36.78 40.9601H19.22C17.72 40.9601 16.38 40.7401 15.22 40.3001C14.28 39.9601 13.46 39.4601 12.8 38.8201C12.44 38.4801 12.72 37.9401 13.22 37.9401H30.78C38.18 37.9401 42.58 33.5401 42.58 26.1601V15.8401C42.58 15.3601 43.12 15.0601 43.46 15.4201C44.82 16.8601 45.6 18.9601 45.6 21.8401Z" fill="#8322FF"/>
</g>
<defs>
<filter id="filter0_d_2517_3896" x="-3" y="0" width="56" height="56" filterUnits="userSpaceOnUse" color-interpolation-filters="sRGB">
<feFlood flood-opacity="0" result="BackgroundImageFix"/>
<feColorMatrix in="SourceAlpha" type="matrix" values="0 0 0 0 0 0 0 0 0 0 0 0 0 0 0 0 0 0 127 0" result="hardAlpha"/>
<feOffset dy="4"/>
<feGaussianBlur stdDeviation="2"/>
<feComposite in2="hardAlpha" operator="out"/>
<feColorMatrix type="matrix" values="0 0 0 0 0 0 0 0 0 0 0 0 0 0 0 0 0 0 0.25 0"/>
<feBlend mode="normal" in2="BackgroundImageFix" result="effect1_dropShadow_2517_3896"/>
<feBlend mode="normal" in="SourceGraphic" in2="effect1_dropShadow_2517_3896" result="shape"/>
</filter>
</defs>
</svg>
