<svg width="12" height="12" viewBox="0 0 12 12" fill="none" xmlns="http://www.w3.org/2000/svg">
<path fill-rule="evenodd" clip-rule="evenodd" d="M5.77 11.1755L5.805 11.1955L5.819 11.2035C5.87452 11.2335 5.93664 11.2492 5.99975 11.2492C6.06286 11.2492 6.12498 11.2335 6.1805 11.2035L6.1945 11.196L6.23 11.1755C6.42556 11.0595 6.61638 10.9358 6.802 10.8045C7.28254 10.4652 7.73152 10.0834 8.1435 9.6635C9.1155 8.6685 10.125 7.1735 10.125 5.25C10.125 4.15598 9.6904 3.10677 8.91682 2.33318C8.14323 1.5596 7.09402 1.125 6 1.125C4.90598 1.125 3.85677 1.5596 3.08318 2.33318C2.3096 3.10677 1.875 4.15598 1.875 5.25C1.875 7.173 2.885 8.6685 3.8565 9.6635C4.26832 10.0833 4.71714 10.4652 5.1975 10.8045C5.38328 10.9358 5.57427 11.0596 5.77 11.1755ZM6 6.75C6.39782 6.75 6.77936 6.59196 7.06066 6.31066C7.34196 6.02936 7.5 5.64782 7.5 5.25C7.5 4.85218 7.34196 4.47064 7.06066 4.18934C6.77936 3.90804 6.39782 3.75 6 3.75C5.60218 3.75 5.22064 3.90804 4.93934 4.18934C4.65804 4.47064 4.5 4.85218 4.5 5.25C4.5 5.64782 4.65804 6.02936 4.93934 6.31066C5.22064 6.59196 5.60218 6.75 6 6.75Z" fill="#FF2424"/>
</svg>
