<svg width="24" height="24" viewBox="0 0 24 24" fill="none" xmlns="http://www.w3.org/2000/svg">
<path opacity="0.25" d="M18.6667 18.7966H17.8222C16.7416 18.7966 15.7066 19.2116 14.9405 19.9697C14.9399 19.9703 14.9394 19.9708 14.9388 19.9714L13.0423 21.8281C13.0422 21.8282 13.0422 21.8283 13.0421 21.8283C13.0421 21.8284 13.042 21.8284 13.042 21.8284C12.4668 22.3906 11.5217 22.3905 10.9466 21.8281L9.05004 19.9714C9.04951 19.9708 9.04897 19.9703 9.04843 19.9698C8.28134 19.2107 7.23486 18.7966 6.16667 18.7966H5.33333C3.88982 18.7966 2.75 17.6553 2.75 16.2776V4.26902C2.75 2.89126 3.88982 1.75 5.33333 1.75H18.6667C20.1102 1.75 21.25 2.89126 21.25 4.26902V16.2776C21.25 17.646 20.1085 18.7966 18.6667 18.7966Z" stroke="#8322FF" stroke-width="1.5"/>
<path d="M10.3091 14.5248H7.51245C7.05329 14.5248 6.62544 14.3057 6.35412 13.93C6.09324 13.5752 6.03062 13.1369 6.15585 12.7195C6.52108 11.6029 7.41853 10.9976 8.21161 10.455C9.04644 9.8915 9.51604 9.53674 9.51604 8.93149C9.51604 8.38885 9.07775 7.95056 8.53511 7.95056C7.99247 7.95056 7.5542 8.38885 7.5542 8.93149C7.5542 9.35934 7.19939 9.71414 6.77154 9.71414C6.34369 9.71414 5.98889 9.35934 5.98889 8.93149C5.98889 7.53315 7.12633 6.38525 8.53511 6.38525C9.94388 6.38525 11.0813 7.52271 11.0813 8.93149C11.0813 10.4029 9.9752 11.1542 9.0882 11.7594C8.53512 12.1351 8.01334 12.4899 7.75246 12.9595H10.2987C10.7265 12.9595 11.0813 13.3143 11.0813 13.7422C11.0813 14.17 10.737 14.5248 10.3091 14.5248Z" fill="#8322FF"/>
<path d="M16.2155 14.5246C15.7877 14.5246 15.4329 14.1698 15.4329 13.742V13.0219H13.3876C13.3876 13.0219 13.3876 13.0219 13.3771 13.0219C12.8658 13.0219 12.3962 12.7506 12.1353 12.3124C11.8744 11.8636 11.8744 11.3106 12.1353 10.8723C12.8449 9.65133 13.6693 8.26339 14.4207 7.05289C14.7546 6.52068 15.3912 6.28071 15.986 6.44768C16.5808 6.62508 16.9982 7.1677 16.9878 7.79382V11.4671H17.2173C17.6452 11.4671 18 11.8219 18 12.2497C18 12.6776 17.6452 13.0324 17.2173 13.0324H16.9982V13.7524C16.9982 14.1803 16.6538 14.5246 16.2155 14.5246ZM15.4329 8.39909C14.8172 9.40088 14.1806 10.4757 13.6067 11.4566H15.4329V8.39909Z" fill="#8322FF"/>
</svg>
