<svg width="24" height="24" viewBox="0 0 24 24" fill="none" xmlns="http://www.w3.org/2000/svg">
<path opacity="0.25" d="M7.391 1.75H16.609C18.4618 1.75 19.8507 2.29939 20.7757 3.22433C21.7006 4.14927 22.25 5.53815 22.25 7.391V16.609C22.25 18.4618 21.7006 19.8507 20.7757 20.7757C19.8507 21.7006 18.4618 22.25 16.609 22.25H7.391C5.53815 22.25 4.14927 21.7006 3.22433 20.7757C2.29939 19.8507 1.75 18.4618 1.75 16.609V7.391C1.75 5.53815 2.29939 4.14927 3.22433 3.22433C4.14927 2.29939 5.53815 1.75 7.391 1.75Z" stroke="#8322FF" stroke-width="1.5"/>
<path d="M18.941 8.55718C18.941 9.00818 18.578 9.38218 18.116 9.38218H12.341C11.89 9.38218 11.516 9.00818 11.516 8.55718C11.516 8.10618 11.89 7.73218 12.341 7.73218H18.116C18.578 7.73218 18.941 8.10618 18.941 8.55718Z" fill="#8322FF"/>
<path d="M9.767 7.48997L7.292 9.96497C7.127 10.13 6.918 10.207 6.709 10.207C6.5 10.207 6.28 10.13 6.126 9.96497L5.301 9.13997C4.971 8.82097 4.971 8.29297 5.301 7.97397C5.62 7.65497 6.137 7.65497 6.467 7.97397L6.709 8.21597L8.601 6.32397C8.92 6.00497 9.437 6.00497 9.767 6.32397C10.086 6.64297 10.086 7.17097 9.767 7.48997Z" fill="#8322FF"/>
<path d="M18.941 16.2571C18.941 16.7081 18.578 17.0821 18.116 17.0821H12.341C11.89 17.0821 11.516 16.7081 11.516 16.2571C11.516 15.8061 11.89 15.4321 12.341 15.4321H18.116C18.578 15.4321 18.941 15.8061 18.941 16.2571Z" fill="#8322FF"/>
<path d="M9.767 15.1902L7.292 17.6652C7.127 17.8302 6.918 17.9072 6.709 17.9072C6.5 17.9072 6.28 17.8302 6.126 17.6652L5.301 16.8402C4.971 16.5212 4.971 15.9932 5.301 15.6742C5.62 15.3552 6.137 15.3552 6.467 15.6742L6.709 15.9162L8.601 14.0242C8.92 13.7052 9.437 13.7052 9.767 14.0242C10.086 14.3432 10.086 14.8712 9.767 15.1902Z" fill="#8322FF"/>
</svg>
