<svg width="25" height="24" viewBox="0 0 25 24" fill="none" xmlns="http://www.w3.org/2000/svg">
<path d="M18.8198 5.93361L18.9663 6.08006H19.1734H19.5734C20.0355 6.08006 20.5959 6.08921 21.0452 6.33763C21.2562 6.4543 21.4445 6.62604 21.5847 6.89269C21.7274 7.16413 21.8334 7.55971 21.8334 8.14006C21.8334 8.92383 21.683 9.38062 21.4965 9.65157C21.3198 9.90824 21.073 10.0528 20.743 10.1323C20.511 10.1815 20.2607 10.2001 19.9734 10.2001H4.69337C4.39774 10.2001 4.1388 10.1891 3.91069 10.134L3.91071 10.134L3.9035 10.1323C3.66033 10.0774 3.46833 9.98448 3.31407 9.82379L3.31414 9.82372L3.30693 9.8165C3.02343 9.53301 2.83337 9.05351 2.83337 8.14006C2.83337 7.55969 2.93939 7.16419 3.08213 6.89284C3.22234 6.6263 3.41085 6.45457 3.62241 6.33785C4.07301 6.08924 4.63587 6.08006 5.10337 6.08006H5.50337H5.71091L5.85745 5.93309L9.22304 2.55752C9.31151 2.47467 9.43561 2.48277 9.50674 2.5506C9.58991 2.64032 9.58017 2.76615 9.50982 2.83651L7.11982 5.22651L6.26627 6.08006H7.47337H17.1934H18.4005L17.5469 5.22651L15.161 2.84058C15.078 2.75209 15.086 2.62788 15.1539 2.55669C15.2436 2.47352 15.3695 2.48326 15.4398 2.55361L18.8198 5.93361Z" fill="#8322FF" stroke="#8322FF"/>
<path d="M4.74678 13.0794L4.74674 13.0791C4.69706 12.7761 4.92913 12.5 5.24332 12.5H19.4233C19.7384 12.5 19.9729 12.7828 19.9124 13.095L19.9124 13.0952L18.9024 18.3252L18.9022 18.3264C18.7228 19.268 18.5013 20.0327 17.9919 20.5772C17.503 21.0999 16.6665 21.5 15.0633 21.5H9.45332C7.89477 21.5 7.02391 21.0415 6.50129 20.4606C5.9605 19.8595 5.72233 19.052 5.58683 18.2197L5.58678 18.2194L4.74678 13.0794ZM9.07581 16.1105L9.07576 16.1105L9.06977 16.1164C8.58451 16.6017 8.58451 17.3983 9.06977 17.8836L10.5698 19.3836C10.8185 19.6323 11.1379 19.75 11.4533 19.75C11.7684 19.75 12.0698 19.6331 12.3028 19.417C12.3031 19.4168 12.3033 19.4166 12.3035 19.4164L15.5507 16.4191C16.067 15.9505 16.0956 15.1655 15.6344 14.6549L15.6344 14.6548L15.6289 14.6488C15.1637 14.1504 14.3683 14.1132 13.8633 14.5834C13.8629 14.5838 13.8625 14.5841 13.8622 14.5845L11.4972 16.7668L10.8469 16.1164L10.8469 16.1164L10.8408 16.1105C10.347 15.6332 9.56961 15.6332 9.07581 16.1105Z" fill="#8322FF" stroke="#8322FF"/>
</svg>
