<svg width="24" height="24" viewBox="0 0 24 24" fill="none" xmlns="http://www.w3.org/2000/svg">
<g id="vuesax/bold/wallet-3">
<g id="Group">
<path id="Vector" d="M17.3783 13.7886L17.3783 13.7886L17.3778 13.7827C17.3328 13.3109 17.5119 12.8677 17.8293 12.5579L17.8294 12.558L17.8382 12.5489C18.1135 12.2662 18.494 12.1001 18.92 12.1001H20.97C21.267 12.1001 21.5 12.3394 21.5 12.6201V14.6801C21.5 14.9608 21.267 15.2001 20.97 15.2001H19.04C18.1806 15.2001 17.4436 14.5719 17.3783 13.7886Z" fill="#8322FF" stroke="#8322FF"/>
<path id="Vector_2" d="M14.8818 14.0026L14.8819 14.0037C15.0659 16.0967 16.8959 17.6999 19.04 17.6999H19.4561C19.1947 19.3676 17.7465 20.6499 16 20.6499H6C4.06614 20.6499 2.5 19.0838 2.5 17.1499V10.1499C2.5 8.21604 4.06614 6.6499 6 6.6499H16C17.7374 6.6499 19.1946 7.93292 19.4561 9.5999H18.92C17.8283 9.5999 16.8107 10.032 16.0762 10.7766C15.2129 11.63 14.7791 12.8046 14.8818 14.0026ZM7 12.3999H13C13.6861 12.3999 14.25 11.836 14.25 11.1499C14.25 10.4638 13.6861 9.8999 13 9.8999H7C6.31821 9.8999 5.75 10.4494 5.75 11.1499C5.75 11.8504 6.31821 12.3999 7 12.3999Z" fill="#8322FF" stroke="#8322FF"/>
<path id="Vector_3" d="M14.21 3.9801C14.47 4.2501 14.24 4.6501 13.86 4.6501H6.03C4.94 4.6501 3.92 4.9701 3.07 5.5201C2.68 5.7701 2.15 5.5001 2.34 5.0701C2.9 3.7601 4.21 2.8501 5.72 2.8501H11.34C12.5 2.8501 13.53 3.2601 14.21 3.9801Z" fill="#8322FF"/>
</g>
</g>
</svg>
