<svg width="155" height="48" viewBox="0 0 155 48" fill="none" xmlns="http://www.w3.org/2000/svg">
<path d="M143.664 13.9744V34.6213H139.055V10.6452H143.328L143.664 13.9744ZM154.628 19.1121V19.4482C154.628 20.7073 154.479 21.8757 154.18 22.9534C153.892 24.0311 153.465 24.97 152.899 25.7703C152.334 26.5599 151.63 27.1788 150.787 27.6269C149.954 28.0644 148.994 28.2832 147.906 28.2832C146.849 28.2832 145.932 28.0698 145.153 27.6429C144.374 27.2161 143.718 26.6186 143.184 25.8503C142.661 25.0714 142.24 24.1698 141.92 23.1454C141.6 22.1211 141.354 21.0221 141.183 19.8483V18.968C141.354 17.7089 141.6 16.5566 141.92 15.5109C142.24 14.4545 142.661 13.5422 143.184 12.774C143.718 11.995 144.369 11.3922 145.137 10.9653C145.916 10.5385 146.828 10.3251 147.874 10.3251C148.973 10.3251 149.938 10.5332 150.771 10.9493C151.614 11.3655 152.318 11.963 152.883 12.7419C153.46 13.5209 153.892 14.4492 154.18 15.5269C154.479 16.6046 154.628 17.7996 154.628 19.1121ZM150.002 19.4482V19.1121C150.002 18.3758 149.938 17.6983 149.81 17.0794C149.693 16.4499 149.501 15.9003 149.234 15.4308C148.978 14.9614 148.637 14.5986 148.21 14.3425C147.794 14.0757 147.287 13.9423 146.689 13.9423C146.06 13.9423 145.521 14.0437 145.073 14.2464C144.635 14.4492 144.278 14.7426 144 15.1267C143.723 15.5109 143.515 15.9697 143.376 16.5032C143.238 17.0367 143.152 17.6396 143.12 18.3118V20.5366C143.173 21.3262 143.323 22.0357 143.568 22.6653C143.814 23.2841 144.193 23.775 144.705 24.1378C145.217 24.5006 145.889 24.6819 146.721 24.6819C147.33 24.6819 147.842 24.5486 148.258 24.2818C148.674 24.0044 149.01 23.6256 149.266 23.1454C149.533 22.6653 149.72 22.1104 149.826 21.4809C149.944 20.8513 150.002 20.1738 150.002 19.4482Z" fill="black"/>
<path d="M119.816 19.4802V19.1441C119.816 17.8743 119.998 16.7059 120.361 15.6389C120.723 14.5612 121.251 13.6276 121.945 12.838C122.639 12.0484 123.492 11.4348 124.506 10.9974C125.52 10.5492 126.683 10.3251 127.995 10.3251C129.308 10.3251 130.476 10.5492 131.5 10.9974C132.525 11.4348 133.384 12.0484 134.077 12.838C134.781 13.6276 135.315 14.5612 135.678 15.6389C136.04 16.7059 136.222 17.8743 136.222 19.1441V19.4802C136.222 20.7393 136.04 21.9077 135.678 22.9854C135.315 24.0524 134.781 24.9861 134.077 25.7863C133.384 26.5759 132.53 27.1895 131.516 27.6269C130.503 28.0644 129.34 28.2832 128.027 28.2832C126.715 28.2832 125.546 28.0644 124.522 27.6269C123.508 27.1895 122.649 26.5759 121.945 25.7863C121.251 24.9861 120.723 24.0524 120.361 22.9854C119.998 21.9077 119.816 20.7393 119.816 19.4802ZM124.426 19.1441V19.4802C124.426 20.2058 124.49 20.8833 124.618 21.5129C124.746 22.1424 124.949 22.6973 125.226 23.1774C125.514 23.6469 125.888 24.0151 126.347 24.2818C126.805 24.5486 127.366 24.6819 128.027 24.6819C128.667 24.6819 129.217 24.5486 129.676 24.2818C130.134 24.0151 130.503 23.6469 130.78 23.1774C131.057 22.6973 131.26 22.1424 131.388 21.5129C131.527 20.8833 131.596 20.2058 131.596 19.4802V19.1441C131.596 18.4399 131.527 17.7783 131.388 17.1594C131.26 16.5299 131.052 15.975 130.764 15.4949C130.487 15.004 130.118 14.6199 129.66 14.3425C129.201 14.0651 128.646 13.9263 127.995 13.9263C127.344 13.9263 126.789 14.0651 126.331 14.3425C125.882 14.6199 125.514 15.004 125.226 15.4949C124.949 15.975 124.746 16.5299 124.618 17.1594C124.49 17.7783 124.426 18.4399 124.426 19.1441Z" fill="black"/>
<path d="M106.676 3.37878V27.963H102.066V3.37878H106.676ZM106.02 18.6959H104.755C104.766 17.4902 104.926 16.3805 105.235 15.3668C105.545 14.3425 105.988 13.4568 106.564 12.7099C107.14 11.9523 107.828 11.3655 108.628 10.9493C109.439 10.5332 110.336 10.3251 111.317 10.3251C112.171 10.3251 112.945 10.4478 113.638 10.6932C114.342 10.928 114.945 11.3121 115.447 11.8456C115.959 12.3685 116.354 13.0567 116.631 13.9103C116.909 14.7639 117.047 15.7989 117.047 17.0154V27.963H112.406V16.9833C112.406 16.2151 112.294 15.6122 112.07 15.1747C111.856 14.7266 111.541 14.4118 111.125 14.2304C110.72 14.0384 110.218 13.9423 109.621 13.9423C108.959 13.9423 108.394 14.065 107.924 14.3104C107.465 14.5559 107.097 14.8973 106.82 15.3348C106.542 15.7616 106.34 16.2631 106.212 16.8393C106.084 17.4155 106.02 18.0344 106.02 18.6959Z" fill="black"/>
<path d="M94.3997 21.865C94.3997 21.4488 94.3357 21.0754 94.2077 20.7446C94.0903 20.4032 93.8662 20.0937 93.5354 19.8163C93.2047 19.5282 92.7405 19.2454 92.143 18.968C91.5454 18.6906 90.7718 18.4025 89.8222 18.1037C88.7658 17.7623 87.7628 17.3781 86.8132 16.9513C85.8742 16.5245 85.0419 16.0284 84.3163 15.4628C83.6014 14.8866 83.0359 14.2198 82.6198 13.4622C82.2143 12.7046 82.0116 11.8243 82.0116 10.8213C82.0116 9.85029 82.225 8.97 82.6518 8.1804C83.0786 7.38013 83.6761 6.69724 84.4444 6.13171C85.2126 5.55552 86.1196 5.1127 87.1653 4.80327C88.2217 4.49383 89.3794 4.33911 90.6385 4.33911C92.3564 4.33911 93.8555 4.64855 95.136 5.26742C96.4164 5.8863 97.4087 6.73458 98.113 7.81228C98.8279 8.88997 99.1853 10.1224 99.1853 11.5095H94.4157C94.4157 10.8266 94.2717 10.2291 93.9836 9.71691C93.7062 9.19407 93.2793 8.78327 92.7032 8.4845C92.1376 8.18573 91.4227 8.03635 90.5584 8.03635C89.7262 8.03635 89.0326 8.16439 88.4777 8.42048C87.9229 8.6659 87.5067 9.00201 87.2293 9.42882C86.9519 9.84496 86.8132 10.3144 86.8132 10.8373C86.8132 11.2321 86.9092 11.5895 87.1013 11.9096C87.304 12.2298 87.6028 12.5285 87.9976 12.806C88.3924 13.0834 88.8779 13.3448 89.4541 13.5902C90.0303 13.8356 90.6971 14.0757 91.4547 14.3105C92.7245 14.6946 93.8395 15.1267 94.7999 15.6069C95.7708 16.0871 96.5818 16.6259 97.2327 17.2234C97.8836 17.821 98.3744 18.4985 98.7052 19.2561C99.0359 20.0137 99.2013 20.8727 99.2013 21.833C99.2013 22.8467 99.0039 23.7536 98.6091 24.5539C98.2143 25.3542 97.6435 26.0317 96.8966 26.5866C96.1496 27.1414 95.2587 27.5629 94.2237 27.851C93.1887 28.1391 92.0309 28.2831 90.7505 28.2831C89.5981 28.2831 88.4617 28.1338 87.3414 27.835C86.221 27.5256 85.202 27.0614 84.2843 26.4425C83.3774 25.8236 82.6518 25.034 82.1076 24.0737C81.5634 23.1134 81.2913 21.977 81.2913 20.6646H86.1089C86.1089 21.3902 86.221 22.0037 86.4451 22.5052C86.6691 23.0067 86.9839 23.4122 87.3894 23.7216C87.8055 24.031 88.2963 24.2551 88.8619 24.3938C89.4381 24.5325 90.0676 24.6019 90.7505 24.6019C91.5828 24.6019 92.2657 24.4845 92.7992 24.2498C93.3434 24.015 93.7435 23.6896 93.9996 23.2735C94.2663 22.8573 94.3997 22.3878 94.3997 21.865Z" fill="black"/>
<path d="M68.1189 14.3425V27.963H63.5093V10.6452H67.8308L68.1189 14.3425ZM67.4466 18.6959H66.1982C66.1982 17.4155 66.3636 16.2631 66.6944 15.2388C67.0252 14.2038 67.4893 13.3235 68.0869 12.5979C68.6844 11.8616 69.394 11.3015 70.2156 10.9173C71.0479 10.5225 71.9762 10.3251 73.0005 10.3251C73.8114 10.3251 74.553 10.4425 75.2253 10.6773C75.8975 10.912 76.4737 11.2855 76.9538 11.7976C77.4447 12.3098 77.8181 12.9874 78.0742 13.8303C78.341 14.6733 78.4743 15.7029 78.4743 16.9193V27.963H73.8328V16.9033C73.8328 16.1351 73.7261 15.5375 73.5127 15.1107C73.2993 14.6839 72.9845 14.3852 72.5684 14.2144C72.1629 14.033 71.6614 13.9423 71.0639 13.9423C70.445 13.9423 69.9061 14.0651 69.4473 14.3105C68.9992 14.5559 68.6257 14.8973 68.3269 15.3348C68.0388 15.7616 67.8201 16.2631 67.6707 16.8393C67.5213 17.4155 67.4466 18.0344 67.4466 18.6959Z" fill="black"/>
<path d="M59.7961 10.6452V27.963H55.1706V10.6452H59.7961ZM54.8825 6.13169C54.8825 5.45947 55.1172 4.90461 55.5867 4.46713C56.0562 4.02965 56.6857 3.81091 57.4753 3.81091C58.2543 3.81091 58.8785 4.02965 59.348 4.46713C59.8281 4.90461 60.0682 5.45947 60.0682 6.13169C60.0682 6.80392 59.8281 7.35877 59.348 7.79625C58.8785 8.23373 58.2543 8.45247 57.4753 8.45247C56.6857 8.45247 56.0562 8.23373 55.5867 7.79625C55.1172 7.35877 54.8825 6.80392 54.8825 6.13169Z" fill="black"/>
<path d="M52.0335 24.3618V27.963H38.8771V24.3618H52.0335ZM51.7774 13.3021L40.7337 27.963H37.6447V25.2261L48.6404 10.6452H51.7774V13.3021ZM50.1449 10.6452V14.2624H37.9008V10.6452H50.1449Z" fill="black"/>
<path d="M30.0582 24.0577V16.3432C30.0582 15.7883 29.9675 15.3135 29.7861 14.9187C29.6047 14.5132 29.322 14.1984 28.9378 13.9744C28.5644 13.7503 28.0789 13.6382 27.4814 13.6382C26.9692 13.6382 26.5264 13.7289 26.1529 13.9103C25.7795 14.0811 25.4914 14.3318 25.2886 14.6626C25.0859 14.9827 24.9845 15.3615 24.9845 15.799H20.375C20.375 15.0627 20.5457 14.3638 20.8871 13.7023C21.2286 13.0407 21.7248 12.4592 22.3756 11.9577C23.0265 11.4455 23.8001 11.0454 24.6964 10.7573C25.6034 10.4692 26.6171 10.3251 27.7374 10.3251C29.0819 10.3251 30.277 10.5492 31.3226 10.9974C32.3683 11.4455 33.1899 12.1177 33.7875 13.014C34.3957 13.9103 34.6998 15.0307 34.6998 16.3752V23.7856C34.6998 24.7353 34.7585 25.5142 34.8758 26.1224C34.9932 26.72 35.1639 27.2428 35.388 27.691V27.963H30.7304C30.5064 27.4936 30.3356 26.9067 30.2183 26.2025C30.1116 25.4876 30.0582 24.7726 30.0582 24.0577ZM30.6664 17.4155L30.6984 20.0244H28.1216C27.5134 20.0244 26.9852 20.0937 26.537 20.2325C26.0889 20.3712 25.7208 20.5686 25.4327 20.8247C25.1446 21.0701 24.9312 21.3582 24.7925 21.6889C24.6644 22.0197 24.6004 22.3825 24.6004 22.7773C24.6004 23.1721 24.6911 23.5296 24.8725 23.8497C25.0539 24.1591 25.3153 24.4045 25.6567 24.5859C25.9982 24.7566 26.3983 24.842 26.8571 24.842C27.5507 24.842 28.1536 24.7033 28.6658 24.4259C29.1779 24.1484 29.5727 23.807 29.8502 23.4015C30.1382 22.996 30.2876 22.6119 30.2983 22.2491L31.5147 24.2018C31.344 24.6393 31.1092 25.0928 30.8105 25.5622C30.5224 26.0317 30.1543 26.4746 29.7061 26.8907C29.258 27.2962 28.7191 27.6323 28.0896 27.899C27.46 28.1551 26.7131 28.2832 25.8488 28.2832C24.7498 28.2832 23.7521 28.0644 22.8558 27.6269C21.9702 27.1788 21.2659 26.5652 20.7431 25.7863C20.2309 24.9967 19.9748 24.1004 19.9748 23.0974C19.9748 22.1904 20.1456 21.3848 20.487 20.6806C20.8285 19.9764 21.33 19.3842 21.9915 18.904C22.6637 18.4132 23.5014 18.0451 24.5044 17.7996C25.5074 17.5436 26.6704 17.4155 27.9935 17.4155H30.6664Z" fill="black"/>
<path d="M9.15527e-05 4.65918H8.69101C10.4729 4.65918 12.0041 4.92594 13.2845 5.45945C14.5756 5.99296 15.568 6.78256 16.2615 7.82824C16.9551 8.87393 17.3019 10.1597 17.3019 11.6855C17.3019 12.934 17.0885 14.0063 16.6617 14.9026C16.2455 15.7882 15.6533 16.5298 14.8851 17.1274C14.1275 17.7142 13.2365 18.1837 12.2122 18.5358L10.6917 19.3361H3.13714L3.10513 15.5908H8.72302C9.56597 15.5908 10.2649 15.4415 10.8197 15.1427C11.3746 14.8439 11.7907 14.4278 12.0681 13.8943C12.3562 13.3608 12.5003 12.7419 12.5003 12.0377C12.5003 11.2907 12.3616 10.6452 12.0841 10.101C11.8067 9.55682 11.3852 9.14068 10.8197 8.85259C10.2542 8.56449 9.54463 8.42044 8.69101 8.42044H4.8017V27.963H9.15527e-05V4.65918ZM13.0285 27.963L7.71468 17.5755L12.7884 17.5435L18.1662 27.7389V27.963H13.0285Z" fill="black"/>
<path d="M10.304 37.4052C10.336 37.2452 10.352 37.0265 10.352 36.7492C10.352 36.5892 10.3413 36.4345 10.32 36.2852C10.2987 36.1252 10.2613 35.9865 10.208 35.8692C10.1547 35.7412 10.0747 35.6452 9.968 35.5812C9.86133 35.5065 9.72267 35.4692 9.552 35.4692C9.36 35.4692 9.184 35.5119 9.024 35.5972C8.864 35.6825 8.72 35.7945 8.592 35.9332C8.47467 36.0612 8.37867 36.2159 8.304 36.3972C8.24 36.5679 8.208 36.7492 8.208 36.9412C8.208 37.2185 8.27733 37.4319 8.416 37.5812C8.56533 37.7305 8.75733 37.8532 8.992 37.9492C9.22667 38.0452 9.49333 38.1252 9.792 38.1892C10.0907 38.2532 10.4 38.3279 10.72 38.4132C10.9867 38.4879 11.2533 38.5839 11.52 38.7012C11.7867 38.8185 12.0213 38.9785 12.224 39.1812C12.4373 39.3732 12.608 39.6292 12.736 39.9492C12.864 40.2585 12.928 40.6479 12.928 41.1172C12.928 41.7892 12.7947 42.3545 12.528 42.8132C12.2613 43.2719 11.8933 43.6452 11.424 43.9332C10.9547 44.2212 10.3947 44.4292 9.744 44.5572C9.104 44.6852 8.40533 44.7492 7.648 44.7492C6.88 44.7492 6.25067 44.7012 5.76 44.6052C5.28 44.4985 4.90133 44.3865 4.624 44.2692C4.29333 44.1305 4.048 43.9705 3.888 43.7892L4.432 41.5972H7.248C7.23733 41.6932 7.22667 41.8265 7.216 41.9972C7.20533 42.1572 7.2 42.2852 7.2 42.3812C7.2 42.5092 7.216 42.6425 7.248 42.7812C7.28 42.9199 7.328 43.0479 7.392 43.1652C7.46667 43.2825 7.568 43.3785 7.696 43.4532C7.824 43.5279 7.984 43.5652 8.176 43.5652C8.38933 43.5652 8.576 43.5172 8.736 43.4212C8.90667 43.3252 9.04533 43.2079 9.152 43.0692C9.26933 42.9199 9.35467 42.7599 9.408 42.5892C9.472 42.4079 9.504 42.2319 9.504 42.0612C9.504 41.8265 9.44533 41.6292 9.328 41.4692C9.22133 41.3092 9.072 41.1759 8.88 41.0692C8.688 40.9519 8.464 40.8559 8.208 40.7812C7.96267 40.6959 7.70667 40.6105 7.44 40.5252C7.184 40.4505 6.912 40.3599 6.624 40.2532C6.34667 40.1465 6.09067 39.9972 5.856 39.8052C5.62133 39.6132 5.424 39.3732 5.264 39.0852C5.11467 38.7865 5.04 38.4079 5.04 37.9492C5.04 37.2665 5.21067 36.6959 5.552 36.2372C5.904 35.7679 6.34133 35.3892 6.864 35.1012C7.39733 34.8132 7.97867 34.6105 8.608 34.4932C9.23733 34.3652 9.83467 34.3012 10.4 34.3012C11.1467 34.3012 11.7867 34.3919 12.32 34.5732C12.864 34.7439 13.2747 34.9465 13.552 35.1812L12.96 37.4052H10.304ZM23.5506 34.4612H30.2866L30.0306 35.6772H26.7666L26.0946 38.7652H28.8306L28.5746 39.9652H25.8386L25.1026 43.3892H28.3666L28.1266 44.6212H21.3906L23.5506 34.4612ZM39.5975 34.4612H43.0695L41.1815 43.2772H44.4295L44.1575 44.6212H37.4375L39.5975 34.4612ZM55.3163 34.4612H58.7883L56.9003 43.2772H60.1483L59.8763 44.6212H53.1562L55.3163 34.4612ZM71.035 34.4612H77.771L77.515 35.6772H74.251L73.579 38.7652H76.315L76.059 39.9652H73.323L72.587 43.3892H75.851L75.611 44.6212H68.875L71.035 34.4612ZM94.8899 36.8772C94.8899 37.5065 94.7139 38.0879 94.3619 38.6212C94.0099 39.1545 93.4285 39.5599 92.6179 39.8372L94.4739 44.6212H90.9059L89.4979 40.1892H89.3219L88.3779 44.6212H84.9219L87.0819 34.4612H91.2899C91.7805 34.4612 92.2445 34.4932 92.6819 34.5572C93.1192 34.6105 93.4979 34.7279 93.8179 34.9092C94.1485 35.0799 94.4099 35.3252 94.6019 35.6452C94.7939 35.9545 94.8899 36.3652 94.8899 36.8772ZM90.2819 39.1652C90.5592 39.1652 90.7939 39.0745 90.9859 38.8932C91.1885 38.7012 91.3485 38.4719 91.4659 38.2052C91.5939 37.9385 91.6845 37.6559 91.7379 37.3572C91.7912 37.0479 91.8179 36.7812 91.8179 36.5572C91.8179 36.2799 91.7699 36.0452 91.6739 35.8532C91.5779 35.6505 91.3699 35.5492 91.0499 35.5492H90.3299L89.5299 39.1652H90.2819Z" fill="#8322FF"/>
</svg>
