<svg width="104" height="104" viewBox="0 0 104 104" fill="none" xmlns="http://www.w3.org/2000/svg">
<path opacity="0.4" d="M52 104C80.7188 104 104 80.7188 104 52C104 23.2812 80.7188 0 52 0C23.2812 0 0 23.2812 0 52C0 80.7188 23.2812 104 52 104Z" fill="#9CA3AF"/>
<path d="M52 25.6357C41.236 25.6357 32.5 34.3717 32.5 45.1357C32.5 55.6917 40.768 64.2717 51.74 64.5837C51.896 64.5837 52.104 64.5837 52.208 64.5837C52.312 64.5837 52.468 64.5837 52.572 64.5837C52.624 64.5837 52.676 64.5837 52.676 64.5837C63.18 64.2197 71.448 55.6917 71.5 45.1357C71.5 34.3717 62.764 25.6357 52 25.6357Z" fill="#9CA3AF"/>
<path d="M87.256 90.2199C78 98.7479 65.624 104 52 104C38.376 104 26 98.7479 16.744 90.2199C17.992 85.4879 21.372 81.1719 26.312 77.8439C40.508 68.3798 63.596 68.3798 77.688 77.8439C82.68 81.1719 86.008 85.4879 87.256 90.2199Z" fill="#9CA3AF"/>
</svg>
