<svg width="24" height="24" viewBox="0 0 24 24" fill="none" xmlns="http://www.w3.org/2000/svg">
<path d="M10.4464 10.1464L10.1002 10.4927L10.4392 10.8461L12.0868 12.5636C12.0872 12.564 12.0876 12.5644 12.0879 12.5648C12.3507 12.8432 12.5 13.2103 12.5 13.6V18C12.5 18.2739 12.2739 18.5 12 18.5C11.7261 18.5 11.5 18.2739 11.5 18V14V13.7731L11.3293 13.6237L8.12925 10.8237L8.11507 10.8113L8.1 10.8C7.86218 10.6216 7.7 10.2943 7.7 9.8C7.7 9.43678 7.84433 9.06278 8.15355 8.75355L10.9536 5.95355L10.9787 5.92843L11 5.9C11.1784 5.66218 11.5057 5.5 12 5.5C12.4607 5.5 12.8482 5.64432 13.2667 5.9738L15.1464 7.85355L15.1464 7.85356L15.1489 7.85598C15.9412 8.63744 16.9422 9.22422 18.1689 9.42338C18.4163 9.46516 18.6 9.68384 18.6 9.92C18.6 10.2357 18.3209 10.4682 18.0346 10.4256C16.5675 10.2027 15.3434 9.53626 14.3536 8.54645L13.5536 7.74645L13.2 7.39289L12.8464 7.74645L10.4464 10.1464ZM17 3.5C17 4.32386 16.3239 5 15.5 5C14.6761 5 14 4.32386 14 3.5C14 2.67614 14.6761 2 15.5 2C16.3239 2 17 2.67614 17 3.5ZM0.5 17C0.5 14.4761 2.47614 12.5 5 12.5C7.52386 12.5 9.5 14.4761 9.5 17C9.5 19.5239 7.52386 21.5 5 21.5C2.47614 21.5 0.5 19.5239 0.5 17ZM1 17C1 19.1761 2.82386 21 5 21C7.17614 21 9 19.1761 9 17C9 14.8239 7.17614 13 5 13C2.82386 13 1 14.8239 1 17ZM14.5 17C14.5 14.4761 16.4761 12.5 19 12.5C21.5239 12.5 23.5 14.4761 23.5 17C23.5 19.5239 21.5239 21.5 19 21.5C16.4761 21.5 14.5 19.5239 14.5 17ZM15 17C15 19.1761 16.8239 21 19 21C21.1761 21 23 19.1761 23 17C23 14.8239 21.1761 13 19 13C16.8239 13 15 14.8239 15 17Z" fill="#979899" stroke="#979899"/>
</svg>
