<svg width="44" height="44" viewBox="0 0 44 44" fill="none" xmlns="http://www.w3.org/2000/svg">
<rect width="44" height="44" rx="22" fill="#F7F7F7"/>
<path d="M18 12V15" stroke="#617986" stroke-width="1.5" stroke-miterlimit="10" stroke-linecap="round" stroke-linejoin="round"/>
<path d="M26 12V15" stroke="#617986" stroke-width="1.5" stroke-miterlimit="10" stroke-linecap="round" stroke-linejoin="round"/>
<path d="M13.5 19.0901H30.5" stroke="#617986" stroke-width="1.5" stroke-miterlimit="10" stroke-linecap="round" stroke-linejoin="round"/>
<path d="M31 18.5V27C31 30 29.5 32 26 32H18C14.5 32 13 30 13 27V18.5C13 15.5 14.5 13.5 18 13.5H26C29.5 13.5 31 15.5 31 18.5Z" stroke="#617986" stroke-width="1.5" stroke-miterlimit="10" stroke-linecap="round" stroke-linejoin="round"/>
<path d="M25.6947 23.7H25.7037" stroke="#617986" stroke-width="2" stroke-linecap="round" stroke-linejoin="round"/>
<path d="M25.6947 26.7H25.7037" stroke="#617986" stroke-width="2" stroke-linecap="round" stroke-linejoin="round"/>
<path d="M21.9955 23.7H22.0045" stroke="#617986" stroke-width="2" stroke-linecap="round" stroke-linejoin="round"/>
<path d="M21.9955 26.7H22.0045" stroke="#617986" stroke-width="2" stroke-linecap="round" stroke-linejoin="round"/>
<path d="M18.2943 23.7H18.3033" stroke="#617986" stroke-width="2" stroke-linecap="round" stroke-linejoin="round"/>
<path d="M18.2943 26.7H18.3033" stroke="#617986" stroke-width="2" stroke-linecap="round" stroke-linejoin="round"/>
</svg>
