<svg width="36" height="36" viewBox="0 0 36 36" fill="none" xmlns="http://www.w3.org/2000/svg">
<rect x="0.5" y="0.5" width="35" height="35" rx="17.5" fill="#F7F7F7"/>
<rect x="0.5" y="0.5" width="35" height="35" rx="17.5" stroke="#F1F1F5"/>
<path d="M25.0667 26C23.2148 26 21.3852 25.5961 19.5778 24.7884C17.7704 23.9807 16.1259 22.8364 14.6444 21.3556C13.163 19.8741 12.0187 18.2296 11.2116 16.4222C10.4044 14.6148 10.0006 12.7852 10 10.9333C10 10.6667 10.0889 10.4444 10.2667 10.2667C10.4444 10.0889 10.6667 10 10.9333 10H14.5333C14.7407 10 14.9259 10.0705 15.0889 10.2116C15.2519 10.3526 15.3481 10.5191 15.3778 10.7111L15.9556 13.8222C15.9852 14.0593 15.9778 14.2593 15.9333 14.4222C15.8889 14.5852 15.8074 14.7259 15.6889 14.8444L13.5333 17.0222C13.8296 17.5704 14.1813 18.0999 14.5884 18.6107C14.9956 19.1215 15.4439 19.6142 15.9333 20.0889C16.3926 20.5481 16.8741 20.9742 17.3778 21.3671C17.8815 21.76 18.4148 22.1191 18.9778 22.4444L21.0667 20.3556C21.2 20.2222 21.3742 20.1221 21.5893 20.0551C21.8044 19.9881 22.0154 19.9698 22.2222 20L25.2889 20.6222C25.4963 20.6815 25.6667 20.789 25.8 20.9449C25.9333 21.1007 26 21.2747 26 21.4667V25.0667C26 25.3333 25.9111 25.5556 25.7333 25.7333C25.5556 25.9111 25.3333 26 25.0667 26Z" fill="#111827"/>
</svg>
