<svg width="25" height="24" viewBox="0 0 25 24" fill="none" xmlns="http://www.w3.org/2000/svg">
<path d="M4.5 21C3.96957 21 3.46086 20.7891 3.08579 20.4141C2.71071 20.039 2.5 19.5304 2.5 19V7C2.50132 6.46997 2.71246 5.9617 3.08724 5.58691C3.46203 5.21213 3.96997 5.00132 4.5 5H7.67L9.5 3H15.5L17.328 5H20.5C21.0299 5.00158 21.5377 5.21316 21.9125 5.58789C22.2872 5.96262 22.4984 6.47005 22.5 7V19C22.4984 19.5299 22.2872 20.0374 21.9125 20.4121C21.5377 20.7868 21.0299 20.9984 20.5 21H4.5ZM7.5 13C7.5 14.3261 8.02678 15.5975 8.96447 16.5352C9.90215 17.4728 11.1739 18 12.5 18C13.8261 18 15.0979 17.4728 16.0355 16.5352C16.9732 15.5975 17.5 14.3261 17.5 13C17.5 11.6739 16.9732 10.4025 16.0355 9.46484C15.0979 8.52716 13.8261 8 12.5 8C11.1739 8 9.90215 8.52716 8.96447 9.46484C8.02678 10.4025 7.5 11.6739 7.5 13ZM9.3 13C9.3 12.1513 9.63714 11.3374 10.2373 10.7373C10.8374 10.1372 11.6513 9.7998 12.5 9.7998C13.3487 9.7998 14.1626 10.1372 14.7627 10.7373C15.3629 11.3374 15.7 12.1513 15.7 13C15.7 13.8487 15.3629 14.6626 14.7627 15.2627C14.1626 15.8628 13.3487 16.2002 12.5 16.2002C11.6513 16.2002 10.8374 15.8628 10.2373 15.2627C9.63714 14.6626 9.3 13.8487 9.3 13Z" fill="#8322FF"/>
</svg>
