<svg width="18" height="18" viewBox="0 0 18 18" fill="none" xmlns="http://www.w3.org/2000/svg">
<g id="oc/cloud">
<path id="Vector" d="M3.60216 8.13726L3.91705 7.98972L3.8883 7.64317C3.84257 7.09187 3.91169 6.53709 4.09128 6.01387C4.27088 5.49064 4.55705 5.01036 4.93172 4.60337C5.30638 4.19638 5.76139 3.87152 6.26799 3.64933C6.7746 3.42714 7.32178 3.31245 7.87497 3.3125H7.87505C8.67491 3.31243 9.45642 3.55211 10.1187 4.00061C10.781 4.4491 11.2936 5.08582 11.5905 5.82855L11.7322 6.18331L12.1118 6.13974C12.4656 6.09912 12.8239 6.14075 13.159 6.26139C13.494 6.38203 13.7967 6.57842 14.0434 6.83524C14.29 7.09206 14.4741 7.40238 14.5811 7.74201C14.6882 8.08164 14.7153 8.4414 14.6605 8.79325L14.607 9.13613L14.9096 9.30614C15.4639 9.61763 15.8993 10.1041 16.1476 10.6894C16.396 11.2747 16.4434 11.9258 16.2823 12.5409C16.1212 13.156 15.7608 13.7003 15.2574 14.0887C14.754 14.4771 14.136 14.6877 13.5002 14.6875H13.5H5.06251H5.06228C4.28027 14.6879 3.52151 14.4216 2.91124 13.9326C2.30097 13.4436 1.87566 12.7612 1.70552 11.9979C1.53538 11.2346 1.63057 10.4362 1.97539 9.73427C2.32021 9.03239 2.89403 8.46906 3.60216 8.13726ZM7.93751 7.3125V9.81039L7.50106 9.37395L7.49483 9.36771L7.48837 9.36169C7.28696 9.17402 7.02056 9.07184 6.7453 9.0767C6.47004 9.08155 6.20741 9.19306 6.01274 9.38773C5.81807 9.5824 5.70656 9.84503 5.70171 10.1203C5.69685 10.3955 5.79903 10.6619 5.98671 10.8634L5.99272 10.8698L5.99896 10.8761L8.24896 13.1261L8.24918 13.1263C8.4484 13.3252 8.71845 13.437 9.00001 13.437C9.28157 13.437 9.55162 13.3252 9.75084 13.1263L9.75106 13.1261L11.9958 10.8813C12.0968 10.7854 12.1779 10.6706 12.2346 10.5434C12.2926 10.4131 12.3239 10.2724 12.3264 10.1297C12.3289 9.98705 12.3026 9.84534 12.2492 9.71304C12.1958 9.58074 12.1162 9.46056 12.0153 9.35967C11.9145 9.25878 11.7943 9.17924 11.662 9.1258C11.5297 9.07236 11.388 9.04612 11.2453 9.04863C11.1026 9.05115 10.9619 9.08238 10.8316 9.14045L11.0351 9.59716L10.8316 9.14045C10.7044 9.19713 10.5896 9.27826 10.4937 9.37919L10.0625 9.81039V7.3125C10.0625 7.03071 9.95057 6.76046 9.75131 6.5612L9.39776 6.91475L9.75131 6.5612C9.55205 6.36194 9.2818 6.25 9.00001 6.25C8.71822 6.25 8.44797 6.36194 8.24871 6.5612C8.04945 6.76046 7.93751 7.03071 7.93751 7.3125Z" fill="#203744" stroke="#203744"/>
</g>
</svg>
