<svg width="20" height="20" viewBox="0 0 20 20" fill="none" xmlns="http://www.w3.org/2000/svg">
<g id="vuesax/bulk/percentage-circle">
<g id="Group">
<path id="Vector" opacity="0.15" d="M17.8333 9.99984C17.8333 14.3261 14.3262 17.8332 9.99999 17.8332C5.67376 17.8332 2.16666 14.3261 2.16666 9.99984C2.16666 5.67361 5.67376 2.1665 9.99999 2.1665C14.3262 2.1665 17.8333 5.67361 17.8333 9.99984Z" fill="#FF8322" stroke="#FF8322"/>
<g id="Group_2">
<path id="Vector_2" d="M6.93334 12.8498C6.91566 12.8498 6.90014 12.8466 6.88681 12.8412C6.87396 12.836 6.85991 12.8276 6.84523 12.8129C6.8237 12.7914 6.81042 12.7606 6.81042 12.7248C6.81042 12.6889 6.8237 12.6582 6.84523 12.6367L12.3036 7.17836C12.3251 7.15683 12.3558 7.14355 12.3917 7.14355C12.4275 7.14355 12.4582 7.15683 12.4798 7.17836C12.5013 7.19989 12.5146 7.23062 12.5146 7.26647C12.5146 7.30232 12.5013 7.33306 12.4798 7.35458L7.02145 12.8129C7.00677 12.8276 6.99272 12.836 6.97987 12.8412C6.96654 12.8466 6.95102 12.8498 6.93334 12.8498Z" fill="#FF8322" stroke="#FF8322"/>
<path id="Vector_3" d="M7.275 6.3833C6.6 6.3833 6.04166 6.93331 6.04166 7.61664C6.04166 8.29164 6.59167 8.84996 7.275 8.84996C7.95 8.84996 8.50832 8.29998 8.50832 7.61664C8.49998 6.93331 7.95 6.3833 7.275 6.3833Z" fill="#FF8322"/>
<path id="Vector_4" d="M12.725 11.1582C12.05 11.1582 11.4917 11.7082 11.4917 12.3915C11.4917 13.0665 12.0417 13.6249 12.725 13.6249C13.4 13.6249 13.9583 13.0749 13.9583 12.3915C13.9583 11.7082 13.4083 11.1582 12.725 11.1582Z" fill="#FF8322"/>
</g>
</g>
</g>
</svg>
