<svg width="20" height="20" viewBox="0 0 20 20" fill="none" xmlns="http://www.w3.org/2000/svg">
<g id="vuesax/bulk/dollar-circle">
<g id="Group">
<path id="Vector" opacity="0.15" d="M17.8333 9.91683C17.8333 14.2431 14.3262 17.7502 9.99999 17.7502C5.67376 17.7502 2.16666 14.2431 2.16666 9.91683C2.16666 5.5906 5.67376 2.0835 9.99999 2.0835C14.3262 2.0835 17.8333 5.5906 17.8333 9.91683Z" fill="#1EDD31" stroke="#1EDD31"/>
<path id="Vector_2" d="M11.7177 10.4718L11.7177 10.4718L11.7198 10.4725C12.0113 10.5734 12.2973 10.7131 12.5137 10.9551C12.72 11.1859 12.9045 11.5564 12.9083 12.2013C12.9076 13.2151 12.1081 14.0167 11.1667 14.0167H10.625H10.125V14.5167V15C10.125 15.0301 10.1127 15.0614 10.0871 15.0871C10.0614 15.1127 10.0301 15.125 9.99999 15.125C9.96985 15.125 9.93857 15.1127 9.91292 15.0871C9.88728 15.0614 9.87499 15.0301 9.87499 15V14.5083V14.0083H9.37499H9.07499C8.00153 14.0083 7.09999 13.0996 7.09999 11.9417C7.09999 11.9115 7.11228 11.8802 7.13792 11.8546C7.16357 11.829 7.19485 11.8167 7.22499 11.8167C7.25514 11.8167 7.28642 11.829 7.31206 11.8546C7.33771 11.8802 7.34999 11.9115 7.34999 11.9417C7.34999 12.9081 8.09036 13.7583 9.07499 13.7583H9.37499H9.87499V13.2583V10.4417V10.0873L9.54059 9.96988L8.28369 9.52873C8.28347 9.52865 8.28325 9.52857 8.28303 9.52849C7.98479 9.42273 7.69654 9.28078 7.48003 9.03861C7.27397 8.80815 7.09166 8.44036 7.09166 7.8C7.09166 6.78556 7.89146 5.98333 8.83333 5.98333H9.37499H9.87499V5.48333V5C9.87499 4.96985 9.88728 4.93857 9.91292 4.91293C9.93857 4.88728 9.96985 4.875 9.99999 4.875C10.0301 4.875 10.0614 4.88728 10.0871 4.91293C10.1127 4.93857 10.125 4.96985 10.125 5V5.48333V5.98333H10.625H10.925C11.9985 5.98333 12.9 6.8921 12.9 8.05C12.9 8.08015 12.8877 8.11143 12.8621 8.13707C12.8364 8.16272 12.8051 8.175 12.775 8.175C12.7448 8.175 12.7136 8.16272 12.6879 8.13707C12.6623 8.11143 12.65 8.08015 12.65 8.05C12.65 7.08358 11.9096 6.23333 10.925 6.23333H10.625H10.125V6.73333V9.55833V9.91274L10.4594 10.0301L11.7177 10.4718ZM9.88333 6.74167V6.24167H9.38333H8.84166C7.98183 6.24167 7.34999 6.97546 7.34999 7.80833C7.34999 8.21879 7.42091 8.57289 7.64431 8.84769C7.86008 9.1131 8.15821 9.22284 8.36692 9.29649L8.53333 8.825L8.36692 9.2965L9.21692 9.5965L9.88333 9.8317V9.125V6.74167ZM10.125 13.2667V13.7667H10.625H11.1667C12.0256 13.7667 12.65 13.0164 12.65 12.1917C12.65 11.7812 12.5791 11.4271 12.3557 11.1523C12.1399 10.8869 11.8418 10.7772 11.6331 10.7035L11.6331 10.7035L11.6304 10.7026L10.7887 10.4109L10.125 10.1809V10.8833V13.2667Z" fill="#1EDD31" stroke="#1EDD31"/>
</g>
</g>
</svg>
