<svg width="25" height="24" viewBox="0 0 25 24" fill="none" xmlns="http://www.w3.org/2000/svg">
<path d="M3.08005 19.01L3.06005 19.03C2.79005 18.44 2.62005 17.77 2.55005 17.03C2.62005 17.76 2.81005 18.42 3.08005 19.01Z" fill="#617986"/>
<path d="M9.5 10.38C10.8144 10.38 11.88 9.31443 11.88 8C11.88 6.68556 10.8144 5.62 9.5 5.62C8.18556 5.62 7.12 6.68556 7.12 8C7.12 9.31443 8.18556 10.38 9.5 10.38Z" fill="#617986"/>
<path d="M16.69 2H8.31C4.67 2 2.5 4.17 2.5 7.81V16.19C2.5 17.28 2.69 18.23 3.06 19.03C3.92 20.93 5.76 22 8.31 22H16.69C20.33 22 22.5 19.83 22.5 16.19V13.9V7.81C22.5 4.17 20.33 2 16.69 2ZM20.87 12.5C20.09 11.83 18.83 11.83 18.05 12.5L13.89 16.07C13.11 16.74 11.85 16.74 11.07 16.07L10.73 15.79C10.02 15.17 8.89 15.11 8.09 15.65L4.35 18.16C4.13 17.6 4 16.95 4 16.19V7.81C4 4.99 5.49 3.5 8.31 3.5H16.69C19.51 3.5 21 4.99 21 7.81V12.61L20.87 12.5Z" fill="#617986"/>
</svg>
