<svg width="44" height="44" viewBox="0 0 44 44" fill="none" xmlns="http://www.w3.org/2000/svg">
<path opacity="0.4" d="M40.3334 14.3182V25.4832L37.3451 22.9165C35.9151 21.6882 33.6051 21.6882 32.1751 22.9165L24.5484 29.4615C23.1184 30.6898 20.8084 30.6898 19.3784 29.4615L18.7551 28.9482C17.4534 27.8115 15.3817 27.7015 13.9151 28.6915L4.89508 34.7415L4.69341 34.8882C4.01508 33.4215 3.66675 31.6798 3.66675 29.6815V14.3182C3.66675 7.64484 7.64508 3.6665 14.3184 3.6665H29.6817C36.3551 3.6665 40.3334 7.64484 40.3334 14.3182Z" fill="#8322FF"/>
<path d="M16.5001 19.0299C18.9099 19.0299 20.8634 17.0764 20.8634 14.6666C20.8634 12.2568 18.9099 10.3032 16.5001 10.3032C14.0902 10.3032 12.1367 12.2568 12.1367 14.6666C12.1367 17.0764 14.0902 19.0299 16.5001 19.0299Z" fill="#8322FF"/>
<path d="M40.3334 25.4835V29.6819C40.3334 36.3552 36.355 40.3335 29.6817 40.3335H14.3184C9.64336 40.3335 6.27003 38.3719 4.69336 34.8885L4.89503 34.7419L13.915 28.6919C15.3817 27.7019 17.4534 27.8119 18.755 28.9485L19.3784 29.4619C20.8084 30.6902 23.1184 30.6902 24.5484 29.4619L32.175 22.9169C33.605 21.6885 35.915 21.6885 37.345 22.9169L40.3334 25.4835Z" fill="#8322FF"/>
</svg>
