<svg width="18" height="18" viewBox="0 0 18 18" fill="none" xmlns="http://www.w3.org/2000/svg">
<path d="M8.25 1.5H6.75C3 1.5 1.5 3 1.5 6.75V11.25C1.5 15 3 16.5 6.75 16.5H11.25C15 16.5 16.5 15 16.5 11.25V9.75" stroke="#8322FF" stroke-width="1.5" stroke-linecap="round" stroke-linejoin="round"/>
<path d="M12.03 2.26495L6.12 8.17495C5.895 8.39995 5.67 8.84245 5.625 9.16495L5.3025 11.4224C5.1825 12.2399 5.76 12.8099 6.5775 12.6974L8.835 12.3749C9.15 12.3299 9.5925 12.1049 9.825 11.8799L15.735 5.96995C16.755 4.94995 17.235 3.76495 15.735 2.26495C14.235 0.764945 13.05 1.24495 12.03 2.26495Z" stroke="#8322FF" stroke-width="1.5" stroke-miterlimit="10" stroke-linecap="round" stroke-linejoin="round"/>
<path d="M11.1825 3.1123C11.685 4.9048 13.0875 6.3073 14.8875 6.8173" stroke="#8322FF" stroke-width="1.5" stroke-miterlimit="10" stroke-linecap="round" stroke-linejoin="round"/>
</svg>
