<svg width="20" height="20" viewBox="0 0 20 20" fill="none" xmlns="http://www.w3.org/2000/svg">
<g id="vuesax/bulk/receipt-item">
<g id="Group">
<path id="Vector" d="M18.3333 4.99991V7.01657C18.3333 8.33324 17.5 9.16657 16.1833 9.16657H13.3333V3.34157C13.3333 2.41657 14.0916 1.65824 15.0166 1.66657C15.925 1.67491 16.7583 2.04157 17.3583 2.64157C17.9583 3.24991 18.3333 4.08324 18.3333 4.99991Z" fill="#8322FF"/>
<path id="Vector_2" opacity="0.4" d="M1.66669 5.83317V17.4998C1.66669 18.1915 2.45002 18.5832 3.00002 18.1665L4.42502 17.0998C4.75835 16.8498 5.22502 16.8832 5.52502 17.1832L6.90835 18.5748C7.23335 18.8998 7.76669 18.8998 8.09169 18.5748L9.49169 17.1748C9.78335 16.8832 10.25 16.8498 10.575 17.0998L12 18.1665C12.55 18.5748 13.3334 18.1832 13.3334 17.4998V3.33317C13.3334 2.4165 14.0834 1.6665 15 1.6665H5.83335H5.00002C2.50002 1.6665 1.66669 3.15817 1.66669 4.99984V5.83317Z" fill="#8322FF"/>
<g id="Group_2">
<path id="Vector_3" d="M10 10.2163H7.5C7.15833 10.2163 6.875 10.4996 6.875 10.8413C6.875 11.183 7.15833 11.4663 7.5 11.4663H10C10.3417 11.4663 10.625 11.183 10.625 10.8413C10.625 10.4996 10.3417 10.2163 10 10.2163Z" fill="#8322FF"/>
<path id="Vector_4" d="M7.5 8.1333H10C10.3417 8.1333 10.625 7.84997 10.625 7.5083C10.625 7.16663 10.3417 6.8833 10 6.8833H7.5C7.15833 6.8833 6.875 7.16663 6.875 7.5083C6.875 7.84997 7.15833 8.1333 7.5 8.1333Z" fill="#8322FF"/>
<path id="Vector_5" d="M4.975 6.6748C4.50833 6.6748 4.14166 7.0498 4.14166 7.50814C4.14166 7.96647 4.51666 8.34147 4.975 8.34147C5.43333 8.34147 5.80833 7.96647 5.80833 7.50814C5.80833 7.0498 5.43333 6.6748 4.975 6.6748Z" fill="#8322FF"/>
<path id="Vector_6" d="M4.975 10.0083C4.50833 10.0083 4.14166 10.3833 4.14166 10.8416C4.14166 11.3 4.51666 11.675 4.975 11.675C5.43333 11.675 5.80833 11.3 5.80833 10.8416C5.80833 10.3833 5.43333 10.0083 4.975 10.0083Z" fill="#8322FF"/>
</g>
</g>
</g>
</svg>
