<svg width="161" height="36" viewBox="0 0 161 36" fill="none" xmlns="http://www.w3.org/2000/svg">
<circle cx="18" cy="18" r="18" fill="url(#paint0_angular_2842_6211)"/>
<rect x="9" y="8.18176" width="8.18182" height="19.6364" rx="4.09091" fill="white"/>
<rect x="18.8182" y="8.18176" width="8.18182" height="8.18182" rx="4.09091" fill="white"/>
<path d="M152.748 10.2307V25.7159H149.291V7.73385H152.496L152.748 10.2307ZM160.971 14.084V14.3361C160.971 15.2804 160.859 16.1567 160.635 16.965C160.419 17.7732 160.099 18.4775 159.675 19.0777C159.25 19.6699 158.722 20.134 158.09 20.4701C157.466 20.7982 156.746 20.9623 155.929 20.9623C155.137 20.9623 154.449 20.8022 153.865 20.4821C153.28 20.162 152.788 19.7139 152.388 19.1377C151.996 18.5535 151.68 17.8773 151.44 17.109C151.2 16.3407 151.016 15.5165 150.888 14.6362V13.9759C151.016 13.0316 151.2 12.1673 151.44 11.3831C151.68 10.5908 151.996 9.90658 152.388 9.33039C152.788 8.74619 153.276 8.29404 153.853 7.97394C154.437 7.65383 155.121 7.49377 155.905 7.49377C156.73 7.49377 157.454 7.64983 158.078 7.96193C158.71 8.27404 159.238 8.72219 159.663 9.30638C160.095 9.89058 160.419 10.5868 160.635 11.3951C160.859 12.2034 160.971 13.0997 160.971 14.084ZM157.502 14.3361V14.084C157.502 13.5318 157.454 13.0236 157.358 12.5595C157.27 12.0873 157.126 11.6752 156.926 11.3231C156.734 10.9709 156.477 10.6988 156.157 10.5068C155.845 10.3067 155.465 10.2067 155.017 10.2067C154.545 10.2067 154.141 10.2827 153.805 10.4348C153.476 10.5868 153.208 10.8069 153 11.095C152.792 11.3831 152.636 11.7272 152.532 12.1273C152.428 12.5275 152.364 12.9796 152.34 13.4838V15.1523C152.38 15.7445 152.492 16.2767 152.676 16.7489C152.86 17.213 153.144 17.5812 153.528 17.8532C153.913 18.1253 154.417 18.2614 155.041 18.2614C155.497 18.2614 155.881 18.1614 156.193 17.9613C156.505 17.7532 156.758 17.4691 156.95 17.109C157.15 16.7489 157.29 16.3327 157.37 15.8606C157.458 15.3884 157.502 14.8803 157.502 14.3361Z" fill="black"/>
<path d="M134.862 14.3601V14.108C134.862 13.1557 134.998 12.2794 135.27 11.4791C135.542 10.6708 135.939 9.9706 136.459 9.37841C136.979 8.78621 137.619 8.32605 138.379 7.99794C139.14 7.66183 140.012 7.49377 140.996 7.49377C141.981 7.49377 142.857 7.66183 143.625 7.99794C144.393 8.32605 145.038 8.78621 145.558 9.37841C146.086 9.9706 146.486 10.6708 146.758 11.4791C147.03 12.2794 147.166 13.1557 147.166 14.108V14.3601C147.166 15.3044 147.03 16.1807 146.758 16.989C146.486 17.7892 146.086 18.4895 145.558 19.0897C145.038 19.6819 144.397 20.142 143.637 20.4701C142.877 20.7982 142.005 20.9623 141.02 20.9623C140.036 20.9623 139.16 20.7982 138.391 20.4701C137.631 20.142 136.987 19.6819 136.459 19.0897C135.939 18.4895 135.542 17.7892 135.27 16.989C134.998 16.1807 134.862 15.3044 134.862 14.3601ZM138.319 14.108V14.3601C138.319 14.9043 138.367 15.4124 138.463 15.8846C138.559 16.3567 138.712 16.7729 138.92 17.133C139.136 17.4851 139.416 17.7612 139.76 17.9613C140.104 18.1614 140.524 18.2614 141.02 18.2614C141.5 18.2614 141.913 18.1614 142.257 17.9613C142.601 17.7612 142.877 17.4851 143.085 17.133C143.293 16.7729 143.445 16.3567 143.541 15.8846C143.645 15.4124 143.697 14.9043 143.697 14.3601V14.108C143.697 13.5798 143.645 13.0836 143.541 12.6195C143.445 12.1473 143.289 11.7312 143.073 11.3711C142.865 11.003 142.589 10.7149 142.245 10.5068C141.901 10.2987 141.484 10.1947 140.996 10.1947C140.508 10.1947 140.092 10.2987 139.748 10.5068C139.412 10.7149 139.136 11.003 138.92 11.3711C138.712 11.7312 138.559 12.1473 138.463 12.6195C138.367 13.0836 138.319 13.5798 138.319 14.108Z" fill="black"/>
<path d="M125.007 2.28406V20.7222H121.55V2.28406H125.007ZM124.515 13.7719H123.566C123.574 12.8676 123.694 12.0353 123.926 11.2751C124.159 10.5068 124.491 9.84259 124.923 9.2824C125.355 8.71421 125.871 8.27407 126.471 7.96196C127.08 7.64986 127.752 7.4938 128.488 7.4938C129.128 7.4938 129.708 7.58583 130.229 7.7699C130.757 7.94596 131.209 8.23405 131.585 8.63419C131.969 9.02632 132.265 9.54249 132.473 10.1827C132.681 10.8229 132.785 11.5992 132.785 12.5115V20.7222H129.304V12.4875C129.304 11.9113 129.22 11.4591 129.052 11.131C128.892 10.7949 128.656 10.5588 128.344 10.4228C128.04 10.2787 127.664 10.2067 127.216 10.2067C126.719 10.2067 126.295 10.2987 125.943 10.4828C125.599 10.6669 125.323 10.923 125.115 11.2511C124.907 11.5712 124.755 11.9473 124.659 12.3794C124.563 12.8116 124.515 13.2757 124.515 13.7719Z" fill="black"/>
<path d="M115.8 16.1488C115.8 15.8367 115.752 15.5566 115.656 15.3085C115.568 15.0524 115.4 14.8204 115.152 14.6123C114.903 14.3962 114.555 14.1841 114.107 13.9761C113.659 13.768 113.079 13.5519 112.367 13.3279C111.574 13.0718 110.822 12.7837 110.11 12.4636C109.406 12.1435 108.781 11.7713 108.237 11.3472C107.701 10.915 107.277 10.4149 106.965 9.84669C106.661 9.2785 106.509 8.61828 106.509 7.86602C106.509 7.13778 106.669 6.47756 106.989 5.88536C107.309 5.28516 107.757 4.77299 108.333 4.34885C108.909 3.9167 109.59 3.58459 110.374 3.35251C111.166 3.12043 112.035 3.00439 112.979 3.00439C114.267 3.00439 115.392 3.23647 116.352 3.70063C117.312 4.16478 118.057 4.801 118.585 5.60927C119.121 6.41754 119.389 7.34185 119.389 8.3822H115.812C115.812 7.87003 115.704 7.42188 115.488 7.03775C115.28 6.64562 114.959 6.33751 114.527 6.11344C114.103 5.88936 113.567 5.77732 112.919 5.77732C112.295 5.77732 111.774 5.87336 111.358 6.06542C110.942 6.24948 110.63 6.50157 110.422 6.82167C110.214 7.13378 110.11 7.4859 110.11 7.87803C110.11 8.17413 110.182 8.44222 110.326 8.6823C110.478 8.92238 110.702 9.14645 110.998 9.35452C111.294 9.56259 111.658 9.75866 112.091 9.94272C112.523 10.1268 113.023 10.3068 113.591 10.4829C114.543 10.771 115.38 11.0951 116.1 11.4552C116.828 11.8153 117.436 12.2195 117.924 12.6676C118.413 13.1158 118.781 13.624 119.029 14.1921C119.277 14.7603 119.401 15.4046 119.401 16.1248C119.401 16.885 119.253 17.5653 118.957 18.1655C118.661 18.7657 118.233 19.2738 117.672 19.69C117.112 20.1061 116.444 20.4222 115.668 20.6383C114.891 20.8544 114.023 20.9624 113.063 20.9624C112.199 20.9624 111.346 20.8504 110.506 20.6263C109.666 20.3942 108.901 20.0461 108.213 19.582C107.533 19.1178 106.989 18.5256 106.581 17.8054C106.173 17.0851 105.968 16.2328 105.968 15.2485H109.582C109.582 15.7927 109.666 16.2528 109.834 16.629C110.002 17.0051 110.238 17.3092 110.542 17.5413C110.854 17.7733 111.222 17.9414 111.646 18.0454C112.079 18.1495 112.551 18.2015 113.063 18.2015C113.687 18.2015 114.199 18.1135 114.599 17.9374C115.008 17.7613 115.308 17.5173 115.5 17.2052C115.7 16.8931 115.8 16.5409 115.8 16.1488Z" fill="black"/>
<path d="M96.0891 10.5068V20.7222H92.632V7.73385H95.8731L96.0891 10.5068ZM95.585 13.7719H94.6487C94.6487 12.8116 94.7727 11.9473 95.0208 11.179C95.2689 10.4027 95.617 9.74253 96.0651 9.19835C96.5133 8.64616 97.0455 8.22602 97.6617 7.93792C98.2859 7.64182 98.9821 7.49377 99.7504 7.49377C100.359 7.49377 100.915 7.5818 101.419 7.75786C101.923 7.93392 102.355 8.21402 102.715 8.59814C103.083 8.98227 103.364 9.49044 103.556 10.1227C103.756 10.7549 103.856 11.5271 103.856 12.4394V20.7222H100.375V12.4274C100.375 11.8512 100.295 11.4031 100.135 11.083C99.9745 10.7629 99.7384 10.5388 99.4263 10.4108C99.1222 10.2747 98.746 10.2067 98.2979 10.2067C97.8337 10.2067 97.4296 10.2987 97.0855 10.4828C96.7494 10.6668 96.4693 10.9229 96.2452 11.251C96.0291 11.5711 95.8651 11.9473 95.753 12.3794C95.641 12.8116 95.585 13.2757 95.585 13.7719Z" fill="black"/>
<path d="M89.847 7.73387V20.7222H86.3779V7.73387H89.847ZM86.1618 4.34874C86.1618 3.84457 86.3379 3.42843 86.69 3.10032C87.0421 2.77221 87.5143 2.60815 88.1065 2.60815C88.6907 2.60815 89.1588 2.77221 89.5109 3.10032C89.871 3.42843 90.0511 3.84457 90.0511 4.34874C90.0511 4.85291 89.871 5.26905 89.5109 5.59716C89.1588 5.92527 88.6907 6.08932 88.1065 6.08932C87.5143 6.08932 87.0421 5.92527 86.69 5.59716C86.3379 5.26905 86.1618 4.85291 86.1618 4.34874Z" fill="black"/>
<path d="M84.0251 18.0213V20.7222H74.1578V18.0213H84.0251ZM83.8331 9.72655L75.5503 20.7222H73.2335V18.6696L81.4803 7.73389H83.8331V9.72655ZM82.6087 7.73389V10.4468H73.4256V7.73389H82.6087Z" fill="black"/>
<path d="M67.5436 17.7932V12.0073C67.5436 11.5911 67.4756 11.235 67.3396 10.9389C67.2035 10.6348 66.9915 10.3987 66.7034 10.2307C66.4233 10.0626 66.0591 9.97861 65.611 9.97861C65.2269 9.97861 64.8948 10.0466 64.6147 10.1827C64.3346 10.3107 64.1185 10.4988 63.9664 10.7469C63.8144 10.9869 63.7384 11.271 63.7384 11.5992H60.2812C60.2812 11.047 60.4093 10.5228 60.6653 10.0266C60.9214 9.53046 61.2935 9.09431 61.7817 8.71818C62.2699 8.33406 62.8501 8.03396 63.5223 7.81788C64.2025 7.60181 64.9628 7.49377 65.8031 7.49377C66.8114 7.49377 67.7077 7.66183 68.492 7.99794C69.2762 8.33406 69.8924 8.83823 70.3406 9.51045C70.7967 10.1827 71.0248 11.023 71.0248 12.0313V17.5892C71.0248 18.3014 71.0688 18.8856 71.1569 19.3417C71.2449 19.7899 71.3729 20.182 71.541 20.5181V20.7222H68.0478C67.8798 20.3701 67.7517 19.9299 67.6637 19.4018C67.5837 18.8656 67.5436 18.3294 67.5436 17.7932ZM67.9998 12.8116L68.0238 14.7682H66.0912C65.635 14.7682 65.2389 14.8202 64.9028 14.9243C64.5666 15.0283 64.2906 15.1764 64.0745 15.3684C63.8584 15.5525 63.6984 15.7685 63.5943 16.0166C63.4983 16.2647 63.4503 16.5368 63.4503 16.8329C63.4503 17.129 63.5183 17.3971 63.6543 17.6372C63.7904 17.8693 63.9865 18.0533 64.2425 18.1894C64.4986 18.3174 64.7987 18.3814 65.1428 18.3814C65.663 18.3814 66.1152 18.2774 66.4993 18.0693C66.8834 17.8612 67.1795 17.6052 67.3876 17.3011C67.6037 16.997 67.7157 16.7089 67.7237 16.4368L68.636 17.9013C68.508 18.2294 68.3319 18.5695 68.1078 18.9216C67.8918 19.2737 67.6157 19.6058 67.2796 19.9179C66.9434 20.222 66.5393 20.4741 66.0672 20.6742C65.595 20.8663 65.0348 20.9623 64.3866 20.9623C63.5623 20.9623 62.8141 20.7982 62.1418 20.4701C61.4776 20.134 60.9494 19.6739 60.5573 19.0897C60.1732 18.4975 59.9811 17.8252 59.9811 17.073C59.9811 16.3928 60.1092 15.7886 60.3652 15.2604C60.6213 14.7322 60.9975 14.2881 61.4936 13.9279C61.9978 13.5598 62.626 13.2837 63.3782 13.0997C64.1305 12.9076 65.0028 12.8116 65.9951 12.8116H67.9998Z" fill="black"/>
<path d="M45.0001 3.24438H51.5182C52.8547 3.24438 54.0031 3.44445 54.9634 3.84459C55.9317 4.24472 56.676 4.83692 57.1962 5.62118C57.7163 6.40544 57.9764 7.36977 57.9764 8.51415C57.9764 9.45047 57.8164 10.2547 57.4963 10.927C57.1841 11.5912 56.74 12.1474 56.1638 12.5955C55.5956 13.0357 54.9274 13.3878 54.1591 13.6519L53.0188 14.2521H47.3528L47.3288 11.4431H51.5423C52.1745 11.4431 52.6986 11.3311 53.1148 11.107C53.5309 10.8829 53.843 10.5708 54.0511 10.1707C54.2672 9.77057 54.3752 9.30642 54.3752 8.77824C54.3752 8.21805 54.2712 7.73389 54.0631 7.32575C53.855 6.91762 53.5389 6.60551 53.1148 6.38944C52.6906 6.17337 52.1585 6.06533 51.5182 6.06533H48.6013V20.7222H45.0001V3.24438ZM54.7713 20.7222L50.786 12.9316L54.5913 12.9076L58.6246 20.5542V20.7222H54.7713Z" fill="black"/>
<path d="M52.728 28.3039C52.752 28.1839 52.764 28.0199 52.764 27.8119C52.764 27.6919 52.756 27.5759 52.74 27.4639C52.724 27.3439 52.696 27.2399 52.656 27.1519C52.616 27.0559 52.556 26.9839 52.476 26.9359C52.396 26.8799 52.292 26.8519 52.164 26.8519C52.02 26.8519 51.888 26.8839 51.768 26.9479C51.648 27.0119 51.54 27.0959 51.444 27.1999C51.356 27.2959 51.284 27.4119 51.228 27.5479C51.18 27.6759 51.156 27.8119 51.156 27.9559C51.156 28.1639 51.208 28.3239 51.312 28.4359C51.424 28.5479 51.568 28.6399 51.744 28.7119C51.92 28.7839 52.12 28.8439 52.344 28.8919C52.568 28.9399 52.8 28.9959 53.04 29.0599C53.24 29.1159 53.44 29.1879 53.64 29.2759C53.84 29.3639 54.016 29.4839 54.168 29.6359C54.328 29.7799 54.456 29.9719 54.552 30.2119C54.648 30.4439 54.696 30.7359 54.696 31.0879C54.696 31.5919 54.596 32.0159 54.396 32.3599C54.196 32.7039 53.92 32.9839 53.568 33.1999C53.216 33.4159 52.796 33.5719 52.308 33.6679C51.828 33.7639 51.304 33.8119 50.736 33.8119C50.16 33.8119 49.688 33.7759 49.32 33.7039C48.96 33.6239 48.676 33.5399 48.468 33.4519C48.22 33.3479 48.036 33.2279 47.916 33.0919L48.324 31.4479H50.436C50.428 31.5199 50.42 31.6199 50.412 31.7479C50.404 31.8679 50.4 31.9639 50.4 32.0359C50.4 32.1319 50.412 32.2319 50.436 32.3359C50.46 32.4399 50.496 32.5359 50.544 32.6239C50.6 32.7119 50.676 32.7839 50.772 32.8399C50.868 32.8959 50.988 32.9239 51.132 32.9239C51.292 32.9239 51.432 32.8879 51.552 32.8159C51.68 32.7439 51.784 32.6559 51.864 32.5519C51.952 32.4399 52.016 32.3199 52.056 32.1919C52.104 32.0559 52.128 31.9239 52.128 31.7959C52.128 31.6199 52.084 31.4719 51.996 31.3519C51.916 31.2319 51.804 31.1319 51.66 31.0519C51.516 30.9639 51.348 30.8919 51.156 30.8359C50.972 30.7719 50.78 30.7079 50.58 30.6439C50.388 30.5879 50.184 30.5199 49.968 30.4399C49.76 30.3599 49.568 30.2479 49.392 30.1039C49.216 29.9599 49.068 29.7799 48.948 29.5639C48.836 29.3399 48.78 29.0559 48.78 28.7119C48.78 28.1999 48.908 27.7719 49.164 27.4279C49.428 27.0759 49.756 26.7919 50.148 26.5759C50.548 26.3599 50.984 26.2079 51.456 26.1199C51.928 26.0239 52.376 25.9759 52.8 25.9759C53.36 25.9759 53.84 26.0439 54.24 26.1799C54.648 26.3079 54.956 26.4599 55.164 26.6359L54.72 28.3039H52.728ZM62.663 26.0959H67.715L67.523 27.0079H65.075L64.571 29.3239H66.623L66.431 30.2239H64.379L63.827 32.7919H66.275L66.095 33.7159H61.043L62.663 26.0959ZM74.6981 26.0959H77.3021L75.8861 32.7079H78.3221L78.1181 33.7159H73.0781L74.6981 26.0959ZM86.4872 26.0959H89.0912L87.6752 32.7079H90.1112L89.9072 33.7159H84.8672L86.4872 26.0959ZM98.2763 26.0959H103.328L103.136 27.0079H100.688L100.184 29.3239H102.236L102.044 30.2239H99.9923L99.4403 32.7919H101.888L101.708 33.7159H96.6562L98.2763 26.0959ZM116.167 27.9079C116.167 28.3799 116.035 28.8159 115.771 29.2159C115.507 29.6159 115.071 29.9199 114.463 30.1279L115.855 33.7159H113.179L112.123 30.3919H111.991L111.283 33.7159H108.691L110.311 26.0959H113.467C113.835 26.0959 114.183 26.1199 114.511 26.1679C114.839 26.2079 115.123 26.2959 115.363 26.4319C115.611 26.5599 115.807 26.7439 115.951 26.9839C116.095 27.2159 116.167 27.5239 116.167 27.9079ZM112.711 29.6239C112.919 29.6239 113.095 29.5559 113.239 29.4199C113.391 29.2759 113.511 29.1039 113.599 28.9039C113.695 28.7039 113.763 28.4919 113.803 28.2679C113.843 28.0359 113.863 27.8359 113.863 27.6679C113.863 27.4599 113.827 27.2839 113.755 27.1399C113.683 26.9879 113.527 26.9119 113.287 26.9119H112.747L112.147 29.6239H112.711Z" fill="#8322FF"/>
<defs>
<radialGradient id="paint0_angular_2842_6211" cx="0" cy="0" r="1" gradientUnits="userSpaceOnUse" gradientTransform="translate(18 18) rotate(90) scale(18)">
<stop stop-color="#8322FF"/>
<stop offset="0.838542" stop-color="#C622FF"/>
</radialGradient>
</defs>
</svg>
