<svg width="42" height="40" viewBox="0 0 42 40" fill="none" xmlns="http://www.w3.org/2000/svg">
<rect width="40" height="40" rx="20" fill="white"/>
<path d="M28.02 10.91C24.71 10.91 22.02 13.6 22.02 16.91V19.8C22.02 20.41 21.76 21.34 21.45 21.86L20.3 23.77C19.59 24.95 20.08 26.26 21.38 26.7C25.69 28.14 30.34 28.14 34.65 26.7C35.86 26.3 36.39 24.87 35.73 23.77L34.58 21.86C34.28 21.34 34.02 20.41 34.02 19.8V16.91C34.02 13.61 31.32 10.91 28.02 10.91Z" stroke="#617986" stroke-width="1.5" stroke-miterlimit="10" stroke-linecap="round"/>
<path d="M29.87 11.1999C29.56 11.1099 29.24 11.0399 28.91 10.9999C27.95 10.8799 27.03 10.9499 26.17 11.1999C26.46 10.4599 27.18 9.93994 28.02 9.93994C28.86 9.93994 29.58 10.4599 29.87 11.1999Z" stroke="#617986" stroke-width="1.5" stroke-miterlimit="10" stroke-linecap="round" stroke-linejoin="round"/>
<path d="M31.02 27.0601C31.02 28.7101 29.67 30.0601 28.02 30.0601C27.2 30.0601 26.44 29.7201 25.9 29.1801C25.36 28.6401 25.02 27.8801 25.02 27.0601" stroke="#617986" stroke-width="1.5" stroke-miterlimit="10"/>
<circle cx="36" cy="9" r="5" fill="#FF2424" stroke="white" stroke-width="2"/>
</svg>
