  <svg width="20" height="20" viewBox="0 0 20 20" fill="none" xmlns="http://www.w3.org/2000/svg">
<rect width="20" height="20" rx="10" fill="#F1F1F5"/>
<path d="M8.70016 9.24273L9.04645 8.89645L10.2464 7.69645L10.6 7.34289L10.9536 7.69645L11.3536 8.09645C11.8119 8.55484 12.374 8.86075 13.0483 8.96464C13.0488 8.96402 13.0492 8.9634 13.0495 8.96288C13.0494 8.96285 13.0494 8.96282 13.0494 8.96278C13.0463 8.95926 13.0434 8.95834 13.0429 8.95821C13.0428 8.9582 13.0428 8.9582 13.0428 8.9582L13.125 8.465C12.57 8.375 12.115 8.11 11.75 7.75L8.70016 9.24273ZM8.70016 9.24273L9.03918 9.59613L9.86274 10.4546C9.94436 10.5414 9.99279 10.653 9.99926 10.7725L9.82925 10.6237L8.22925 9.22371L8.21507 9.2113L8.2 9.2C8.16218 9.17164 8.1 9.09429 8.1 8.9C8.1 8.78678 8.14433 8.66278 8.25355 8.55355L9.65355 7.15355L9.67868 7.12843L9.7 7.1C9.72836 7.06218 9.80571 7 10 7C10.1619 7 10.3001 7.04547 10.4675 7.17457L8.70016 9.24273ZM12.25 5.75C12.25 6.02386 12.0239 6.25 11.75 6.25C11.4761 6.25 11.25 6.02386 11.25 5.75C11.25 5.47614 11.4761 5.25 11.75 5.25C12.0239 5.25 12.25 5.47614 12.25 5.75Z" fill="#617986" stroke="#617986"/>
</svg>
