<svg width="16" height="16" viewBox="0 0 16 16" fill="none" xmlns="http://www.w3.org/2000/svg">
<path opacity="0.4" d="M14.2467 7.59341V11.5867C14.2467 13.4267 12.7534 14.9201 10.9134 14.9201H5.08669C3.24669 14.9201 1.75336 13.4267 1.75336 11.5867V7.64007C2.26002 8.18674 2.98002 8.50007 3.76002 8.50007C4.60002 8.50007 5.40669 8.08007 5.91336 7.40674C6.36669 8.08007 7.14002 8.50007 8.00002 8.50007C8.85336 8.50007 9.61336 8.10007 10.0734 7.4334C10.5867 8.0934 11.38 8.50007 12.2067 8.50007C13.0134 8.50007 13.7467 8.17341 14.2467 7.59341Z" fill="#8322FF"/>
<path d="M9.99334 0.833496H5.99334L5.5 5.74016C5.46 6.1935 5.52667 6.62016 5.69334 7.00683C6.08 7.9135 6.98667 8.50016 8 8.50016C9.02667 8.50016 9.91334 7.92683 10.3133 7.0135C10.4333 6.72683 10.5067 6.3935 10.5133 6.0535V5.92683L9.99334 0.833496Z" fill="#8322FF"/>
<path opacity="0.6" d="M14.9067 5.5135L14.7133 3.66683C14.4333 1.6535 13.52 0.833496 11.5667 0.833496H9.00665L9.49999 5.8335C9.50665 5.90016 9.51332 5.9735 9.51332 6.10016C9.55332 6.44683 9.65999 6.76683 9.81999 7.0535C10.3 7.9335 11.2333 8.50016 12.2067 8.50016C13.0933 8.50016 13.8933 8.10683 14.3933 7.4135C14.7933 6.88016 14.9733 6.20683 14.9067 5.5135Z" fill="#8322FF"/>
<path opacity="0.6" d="M4.39334 0.833496C2.43334 0.833496 1.52668 1.6535 1.24001 3.68683L1.06001 5.52016C0.993344 6.2335 1.18668 6.92683 1.60668 7.46683C2.11334 8.12683 2.89334 8.50016 3.76001 8.50016C4.73334 8.50016 5.66668 7.9335 6.14001 7.06683C6.31334 6.76683 6.42668 6.42016 6.46001 6.06016L6.98001 0.840163H4.39334V0.833496Z" fill="#8322FF"/>
<path d="M7.56668 11.1065C6.72002 11.1932 6.08002 11.9132 6.08002 12.7665V14.9198H9.91335V12.9998C9.92002 11.6065 9.10002 10.9465 7.56668 11.1065Z" fill="#8322FF"/>
</svg>
