<svg width="16" height="16" viewBox="0 0 16 16" fill="none" xmlns="http://www.w3.org/2000/svg">
<path opacity="0.4" d="M1.33331 8.58679V7.41345C1.33331 6.72012 1.89998 6.14679 2.59998 6.14679C3.80665 6.14679 4.29998 5.29345 3.69331 4.24679C3.34665 3.64679 3.55331 2.86679 4.15998 2.52012L5.31331 1.86012C5.83998 1.54679 6.51998 1.73345 6.83331 2.26012L6.90665 2.38679C7.50665 3.43345 8.49331 3.43345 9.09998 2.38679L9.17331 2.26012C9.48665 1.73345 10.1666 1.54679 10.6933 1.86012L11.8466 2.52012C12.4533 2.86679 12.66 3.64679 12.3133 4.24679C11.7066 5.29345 12.2 6.14679 13.4066 6.14679C14.1 6.14679 14.6733 6.71345 14.6733 7.41345V8.58679C14.6733 9.28012 14.1066 9.85345 13.4066 9.85345C12.2 9.85345 11.7066 10.7068 12.3133 11.7535C12.66 12.3601 12.4533 13.1335 11.8466 13.4801L10.6933 14.1401C10.1666 14.4535 9.48665 14.2668 9.17331 13.7401L9.09998 13.6135C8.49998 12.5668 7.51331 12.5668 6.90665 13.6135L6.83331 13.7401C6.51998 14.2668 5.83998 14.4535 5.31331 14.1401L4.15998 13.4801C3.55331 13.1335 3.34665 12.3535 3.69331 11.7535C4.29998 10.7068 3.80665 9.85345 2.59998 9.85345C1.89998 9.85345 1.33331 9.28012 1.33331 8.58679Z" fill="#8322FF"/>
<path d="M7.99998 10.1668C9.1966 10.1668 10.1666 9.19678 10.1666 8.00016C10.1666 6.80355 9.1966 5.8335 7.99998 5.8335C6.80336 5.8335 5.83331 6.80355 5.83331 8.00016C5.83331 9.19678 6.80336 10.1668 7.99998 10.1668Z" fill="#8322FF"/>
</svg>
