<svg width="16" height="16" viewBox="0 0 16 16" fill="none" xmlns="http://www.w3.org/2000/svg">
<path opacity="0.4" d="M14.6666 5.20683V9.26683L13.58 8.3335C13.06 7.88683 12.22 7.88683 11.7 8.3335L8.92665 10.7135C8.40665 11.1602 7.56665 11.1602 7.04665 10.7135L6.81998 10.5268C6.34665 10.1135 5.59331 10.0735 5.05998 10.4335L1.77998 12.6335L1.70665 12.6868C1.45998 12.1535 1.33331 11.5202 1.33331 10.7935V5.20683C1.33331 2.78016 2.77998 1.3335 5.20665 1.3335H10.7933C13.22 1.3335 14.6666 2.78016 14.6666 5.20683Z" fill="#8322FF"/>
<path d="M6 6.91992C6.87629 6.91992 7.58666 6.20954 7.58666 5.33325C7.58666 4.45696 6.87629 3.74658 6 3.74658C5.1237 3.74658 4.41333 4.45696 4.41333 5.33325C4.41333 6.20954 5.1237 6.91992 6 6.91992Z" fill="#8322FF"/>
<path d="M14.6667 9.26687V10.7935C14.6667 13.2202 13.22 14.6669 10.7933 14.6669H5.20666C3.50666 14.6669 2.28 13.9535 1.70667 12.6869L1.78 12.6335L5.06 10.4335C5.59333 10.0735 6.34666 10.1135 6.82 10.5269L7.04666 10.7135C7.56666 11.1602 8.40666 11.1602 8.92666 10.7135L11.7 8.33354C12.22 7.88687 13.06 7.88687 13.58 8.33354L14.6667 9.26687Z" fill="#8322FF"/>
</svg>
