<svg width="24" height="24" viewBox="0 0 24 24" fill="none" xmlns="http://www.w3.org/2000/svg">
<g id="vuesax/bulk/bag-tick">
<g id="Group">
<path id="Vector" opacity="0.3" d="M18.4864 5.93361L18.6329 6.08006H18.84H19.24C19.7022 6.08006 20.2625 6.08921 20.7118 6.33763C20.9228 6.4543 21.1112 6.62604 21.2513 6.89269C21.394 7.16413 21.5 7.55971 21.5 8.14006C21.5 8.92383 21.3496 9.38062 21.1631 9.65157C20.9865 9.90824 20.7397 10.0528 20.4096 10.1323C20.1777 10.1815 19.9274 10.2001 19.64 10.2001H4.36C4.06436 10.2001 3.80543 10.1891 3.57732 10.134L3.57733 10.134L3.57013 10.1323C3.32695 10.0774 3.13495 9.98448 2.98069 9.82379L2.98077 9.82372L2.97355 9.8165C2.69006 9.53301 2.5 9.05351 2.5 8.14006C2.5 7.55969 2.60601 7.16419 2.74876 6.89284C2.88897 6.6263 3.07748 6.45457 3.28904 6.33785C3.73964 6.08924 4.30249 6.08006 4.77 6.08006H5.17H5.37754L5.52408 5.93309L8.88966 2.55752C8.97814 2.47467 9.10223 2.48277 9.17337 2.5506C9.25654 2.64032 9.2468 2.76615 9.17645 2.83651L6.78645 5.22651L5.93289 6.08006H7.14H16.86H18.0671L17.2136 5.22651L14.8276 2.84058C14.7446 2.75209 14.7527 2.62788 14.8205 2.55669C14.9103 2.47352 15.0361 2.48326 15.1064 2.55361L18.4864 5.93361Z" fill="#39D8D8" stroke="#39D8D8"/>
<path id="Vector_2" d="M11.9702 18.4164C11.97 18.4166 11.9698 18.4168 11.9696 18.4169C11.7341 18.6354 11.4216 18.75 11.12 18.75C10.8045 18.75 10.4851 18.6322 10.2364 18.3835L8.73644 16.8835C8.25118 16.3983 8.25118 15.6017 8.73644 15.1164C9.2217 14.6312 10.0183 14.6312 10.5035 15.1164L11.1539 15.7668L13.5188 13.5845C13.5192 13.5841 13.5196 13.5837 13.52 13.5834C14.0248 13.1134 14.8199 13.1504 15.2851 13.6484L11.9702 18.4164ZM11.9702 18.4164L15.2174 15.419C15.7347 14.9496 15.7636 14.1599 15.2852 13.6485C15.2853 13.6486 15.2854 13.6487 15.2855 13.6488L11.9702 18.4164ZM4.0625 11.1949C4.16805 11.1992 4.2683 11.2 4.35999 11.2H19.66C19.7442 11.2 19.8303 11.1985 19.9177 11.1948L18.5391 18.3251L18.5388 18.3264C18.3595 19.268 18.1379 20.0327 17.6286 20.5772C17.1396 21.0999 16.3032 21.5 14.7 21.5H9.08999C7.53159 21.5 6.66041 21.0416 6.13638 20.4602C5.59423 19.8588 5.35379 19.0512 5.21322 18.218C5.21316 18.2176 5.2131 18.2172 5.21303 18.2169L4.0625 11.1949Z" fill="#39D8D8" stroke="#39D8D8"/>
</g>
</g>
</svg>
