<svg width="24" height="24" viewBox="0 0 24 24" fill="none" xmlns="http://www.w3.org/2000/svg">
<g id="vuesax/bold/truck">
<g id="Group">
<path id="Vector" d="M10 2.92V11.23C10 12.25 10.83 13.08 11.85 13.08H21C21.55 13.08 22 12.63 22 12.08V5.69C22 3.65 20.35 2 18.31 2H10.93C10.41 2 10 2.41 10 2.92Z" fill="#8322FF"/>
<path id="Vector_2" d="M2.5 15.5C2.22 15.5 2 15.72 2 16V17C2 18.66 3.34 20 5 20C5 18.35 6.35 17 8 17C9.65 17 11 18.35 11 20H13C13 18.35 14.35 17 16 17C17.65 17 19 18.35 19 20C20.66 20 22 18.66 22 17V15C22 14.45 21.55 14 21 14H11.5C10.12 14 9 12.88 9 11.5V6C9 5.45 8.55 5 8 5H7.16C6.44 5 5.78 5.39 5.42 6.01L4.78 7.13C4.69 7.29 4.81 7.5 5 7.5C6.38 7.5 7.5 8.62 7.5 10V13C7.5 14.38 6.38 15.5 5 15.5H2.5Z" fill="#8322FF"/>
<path id="Vector_3" d="M16 22C14.8954 22 14 21.1046 14 20C14 18.8954 14.8954 18 16 18C17.1046 18 18 18.8954 18 20C18 21.1046 17.1046 22 16 22Z" fill="#8322FF"/>
<path id="Vector_4" d="M8 22C6.89543 22 6 21.1046 6 20C6 18.8954 6.89543 18 8 18C9.10457 18 10 18.8954 10 20C10 21.1046 9.10457 22 8 22Z" fill="#8322FF"/>
<path id="Vector_5" d="M2 12.53V14H5C5.55 14 6 13.55 6 13V10C6 9.45 5.55 9 5 9H3.71L2.26 11.54C2.09 11.84 2 12.18 2 12.53Z" fill="#8322FF"/>
</g>
</g>
</svg>
