<svg width="40" height="40" viewBox="0 0 40 40" fill="none" xmlns="http://www.w3.org/2000/svg">
<path opacity="0.4" d="M36.6673 19.9998V28.3332C36.6673 33.3332 33.334 36.6665 28.334 36.6665H12.7173C13.234 36.2332 13.684 35.6998 14.034 35.0998C14.6506 34.0998 15.0007 32.9165 15.0007 31.6665C15.0007 27.9832 12.0173 24.9998 8.33398 24.9998C6.33398 24.9998 4.55065 25.8831 3.33398 27.2665V19.9998C3.33398 15.4665 6.06732 12.2998 10.3173 11.7665C10.7507 11.6998 11.2007 11.6665 11.6673 11.6665H28.334C28.7673 11.6665 29.184 11.6832 29.584 11.7498C33.884 12.2498 36.6673 15.4332 36.6673 19.9998Z" fill="white"/>
<path d="M29.5831 11.7501C29.1831 11.6834 28.7664 11.6668 28.3331 11.6668H11.6664C11.1997 11.6668 10.7497 11.7001 10.3164 11.7668C10.5497 11.3001 10.8831 10.8668 11.2831 10.4668L16.6998 5.0335C18.9831 2.76683 22.683 2.76683 24.9664 5.0335L27.883 7.98343C28.9497 9.03343 29.5164 10.3668 29.5831 11.7501Z" fill="white"/>
<path d="M36.6673 20.8335H31.6673C29.834 20.8335 28.334 22.3335 28.334 24.1668C28.334 26.0002 29.834 27.5002 31.6673 27.5002H36.6673" fill="white"/>
<path d="M9 24C5.1325 24 2 27.1325 2 31C2 34.8675 5.1325 38 9 38C12.8675 38 16 34.8675 16 31C16 27.1325 12.8675 24 9 24ZM10.75 30.44C10.75 31.5075 10.1725 32.5225 9.26254 33.065L7.93253 33.87C7.72253 33.9925 7.49502 34.0625 7.26752 34.0625C6.83002 34.0625 6.39249 33.835 6.14749 33.4325C5.77999 32.82 5.97251 31.9975 6.60251 31.63L7.93253 30.825C8.05503 30.755 8.14252 30.5975 8.14252 30.4575V28.83C8.14252 28.1125 8.73752 27.5175 9.45502 27.5175C10.1725 27.5175 10.7675 28.1125 10.7675 28.83V30.44H10.75Z" fill="white"/>
</svg>
