<svg width="34" height="34" viewBox="0 0 34 34" fill="none" xmlns="http://www.w3.org/2000/svg">
<g id="vuesax/bulk/wallet">
<g id="Group">
<path id="Vector" opacity="0.8" d="M10.3594 7.9097L10.3654 7.89611L10.3707 7.88219L10.4517 7.66612C10.4801 7.59953 10.4948 7.56195 10.5043 7.53762C10.5153 7.50963 10.5194 7.49917 10.5296 7.48221L10.5466 7.4538L10.5598 7.42338C11.4754 5.30556 12.3994 4.13719 13.5063 3.63793C14.516 3.18251 15.7967 3.23165 17.6066 3.85825L13.7952 12.7033H10.0867C9.45563 12.7033 8.84502 12.7774 8.25601 12.9263L10.3049 8.03223L10.3594 7.9097Z" fill="white" stroke="white"/>
<path id="Vector_2" d="M23.9133 12.7032H14.8841L18.5425 4.21312C18.6001 4.2355 18.6602 4.25786 18.7213 4.27864L21.8352 5.58901L21.8352 5.58902L21.8377 5.59003C23.5495 6.2998 24.6749 7.0097 25.3482 7.81802C25.47 7.98051 25.5702 8.11929 25.6692 8.28021L25.6691 8.28026L25.6744 8.28854C25.7843 8.45947 25.8561 8.60956 25.8952 8.75616L25.9054 8.79431L25.9214 8.83039C25.9708 8.94156 25.9993 9.02133 26.0177 9.10412L26.022 9.12321L26.0277 9.14191C26.3211 10.1011 26.1935 11.3046 25.605 12.8917C25.06 12.7685 24.4959 12.7032 23.9133 12.7032Z" fill="white" stroke="white"/>
<path id="Vector_3" opacity="0.25" d="M10.5338 30.5998L10.518 30.5978L10.5021 30.5967C8.33059 30.4533 6.73136 29.8065 5.63747 28.7142C4.54345 27.6218 3.89325 26.0223 3.74298 23.8503L3.74203 23.8365L3.74031 23.8228C3.69928 23.4945 3.67334 23.1909 3.67334 22.879V20.1165C3.67334 17.4763 5.27569 15.2014 7.56459 14.2148L7.56548 14.2144C8.35022 13.8743 9.18894 13.7031 10.0867 13.7031H23.9133C24.5579 13.7031 25.1759 13.7949 25.7685 13.9658C28.3973 14.7692 30.3267 17.2147 30.3267 20.1165V22.879C30.3267 23.1473 30.3133 23.4183 30.2991 23.688C30.1691 26.0809 29.4433 27.8006 28.1916 28.9286C26.9356 30.0605 25.0726 30.6665 22.525 30.6665H11.475C11.1483 30.6665 10.845 30.6404 10.5338 30.5998Z" fill="white" stroke="white"/>
<path id="Vector_4" opacity="0.6" d="M6.98183 13.3801C5.59441 14.0243 4.4377 15.084 3.67334 16.3989V15.9657C3.67334 12.5273 5.89747 9.60623 8.99358 8.57495L6.98183 13.3801Z" fill="white" stroke="white"/>
<path id="Vector_5" opacity="0.6" d="M30.3267 15.9658V16.3967C29.4789 14.9385 28.1496 13.796 26.5634 13.1833C27.0368 11.8911 27.2599 10.7346 27.1533 9.69597C29.0804 11.1107 30.3267 13.4059 30.3267 15.9658Z" fill="white" stroke="white"/>
</g>
</g>
</svg>
