<svg width="25" height="24" viewBox="0 0 25 24" fill="none" xmlns="http://www.w3.org/2000/svg">
<g id="vuesax/linear/wallet-3">
<path id="Line" d="M13.3333 11.1499H7.33331" stroke="#979899" stroke-width="1.5" stroke-linecap="round" stroke-linejoin="round"/>
<path id="Vector" d="M2.33331 11.1501V6.53009C2.33331 4.49009 3.98332 2.84009 6.02332 2.84009H11.6433C13.6833 2.84009 15.3333 4.11009 15.3333 6.15009" stroke="#979899" stroke-width="1.5" stroke-linecap="round" stroke-linejoin="round"/>
<path id="Vector_2" d="M17.8133 12.1999C17.3133 12.6799 17.0733 13.4199 17.2733 14.1799C17.5233 15.1099 18.4433 15.6999 19.4033 15.6999H20.3333V17.1499C20.3333 19.3599 18.5433 21.1499 16.3333 21.1499H6.33331C4.12331 21.1499 2.33331 19.3599 2.33331 17.1499V10.1499C2.33331 7.9399 4.12331 6.1499 6.33331 6.1499H16.3333C18.5333 6.1499 20.3333 7.9499 20.3333 10.1499V11.5999H19.2533C18.6933 11.5999 18.1833 11.8199 17.8133 12.1999Z" stroke="#979899" stroke-width="1.5" stroke-linecap="round" stroke-linejoin="round"/>
<path id="Vector_3" d="M22.3333 12.6201V14.6801C22.3333 15.2401 21.8733 15.7001 21.3033 15.7001H19.3733C18.2933 15.7001 17.3033 14.9101 17.2133 13.8301C17.1533 13.2001 17.3933 12.6101 17.8133 12.2001C18.1833 11.8201 18.6933 11.6001 19.2533 11.6001H21.3033C21.8733 11.6001 22.3333 12.0601 22.3333 12.6201Z" stroke="#979899" stroke-width="1.5" stroke-linecap="round" stroke-linejoin="round"/>
</g>
</svg>
