<svg width="22" height="18" viewBox="0 0 22 18" fill="none" xmlns="http://www.w3.org/2000/svg">
<path fill-rule="evenodd" clip-rule="evenodd" d="M8.344 0.0707902C10.1134 -0.0242478 11.8866 -0.0242478 13.656 0.0707902C14.623 0.12279 15.486 0.65579 15.988 1.46079L16.809 2.77779C17.049 3.16079 17.454 3.42079 17.919 3.48779C18.305 3.54179 18.689 3.60079 19.071 3.66479C20.503 3.90379 21.5 5.15779 21.5 6.57379V14.9998C21.5 15.7954 21.1839 16.5585 20.6213 17.1211C20.0587 17.6837 19.2956 17.9998 18.5 17.9998H3.5C2.70435 17.9998 1.94129 17.6837 1.37868 17.1211C0.816071 16.5585 0.5 15.7954 0.5 14.9998V6.57379C0.5 5.15779 1.497 3.90379 2.929 3.66479C3.311 3.60079 3.695 3.54179 4.08 3.48679C4.30561 3.45659 4.52189 3.37739 4.71364 3.25474C4.9054 3.13208 5.06799 2.96895 5.19 2.77679L6.012 1.46179C6.2605 1.05984 6.60216 0.723671 7.00808 0.48172C7.414 0.239769 7.87223 0.0981593 8.344 0.0707902ZM5.75 9.74979C5.75 8.3574 6.30312 7.02205 7.28769 6.03748C8.27225 5.05291 9.60761 4.49979 11 4.49979C12.3924 4.49979 13.7277 5.05291 14.7123 6.03748C15.6969 7.02205 16.25 8.3574 16.25 9.74979C16.25 11.1422 15.6969 12.4775 14.7123 13.4621C13.7277 14.4467 12.3924 14.9998 11 14.9998C9.60761 14.9998 8.27225 14.4467 7.28769 13.4621C6.30312 12.4775 5.75 11.1422 5.75 9.74979ZM17.75 8.24979C17.9489 8.24979 18.1397 8.17077 18.2803 8.03012C18.421 7.88947 18.5 7.6987 18.5 7.49979C18.5 7.30088 18.421 7.11011 18.2803 6.96946C18.1397 6.82881 17.9489 6.74979 17.75 6.74979C17.5511 6.74979 17.3603 6.82881 17.2197 6.96946C17.079 7.11011 17 7.30088 17 7.49979C17 7.6987 17.079 7.88947 17.2197 8.03012C17.3603 8.17077 17.5511 8.24979 17.75 8.24979Z" fill="white"/>
</svg>
