<svg width="64" height="64" viewBox="0 0 64 64" fill="none" xmlns="http://www.w3.org/2000/svg">
<rect width="64" height="64" rx="16" fill="white"/>
<rect width="64" height="64" rx="16" fill="#8322FF" fill-opacity="0.2"/>
<path opacity="0.4" d="M45.3334 32.0002V38.6668C45.3334 42.6668 42.6667 45.3335 38.6667 45.3335H25.3334C21.3334 45.3335 18.6667 42.6668 18.6667 38.6668V32.0002C18.6667 28.3735 20.8534 25.8402 24.2534 25.4135C24.6 25.3602 24.96 25.3335 25.3334 25.3335H38.6667C39.0134 25.3335 39.3467 25.3468 39.6667 25.4001C43.1067 25.8001 45.3334 28.3468 45.3334 32.0002Z" fill="#8322FF"/>
<path d="M39.6667 25.3998C39.3467 25.3465 39.0134 25.3332 38.6667 25.3332H25.3334C24.96 25.3332 24.6 25.3598 24.2534 25.4132C24.44 25.0398 24.7067 24.6932 25.0267 24.3732L29.36 20.0265C31.1867 18.2132 34.1467 18.2132 35.9734 20.0265L38.3067 22.3865C39.16 23.2265 39.6134 24.2932 39.6667 25.3998Z" fill="#8322FF"/>
<path d="M45.3334 32.6665H41.3334C39.8667 32.6665 38.6667 33.8665 38.6667 35.3332C38.6667 36.7998 39.8667 37.9998 41.3334 37.9998H45.3334" fill="#8322FF"/>
</svg>
