<svg width="24" height="24" viewBox="0 0 24 24" fill="none" xmlns="http://www.w3.org/2000/svg">
<g id="vuesax/bold/menu">
<g id="Group">
<path id="Vector" d="M20.0001 5.84989C20.0001 7.20851 18.8987 8.30989 17.5401 8.30989C16.1815 8.30989 15.0801 7.20851 15.0801 5.84989C15.0801 4.49127 16.1815 3.38989 17.5401 3.38989C18.8987 3.38989 20.0001 4.49127 20.0001 5.84989Z" fill="#8322FF" stroke="#8322FF"/>
<path id="Vector_2" d="M8.92 5.84989C8.92 7.20851 7.81862 8.30989 6.46 8.30989C5.10138 8.30989 4 7.20851 4 5.84989C4 4.49127 5.10138 3.38989 6.46 3.38989C7.81862 3.38989 8.92 4.49127 8.92 5.84989Z" fill="#8322FF" stroke="#8322FF"/>
<path id="Vector_3" d="M20.0001 18.1499C20.0001 19.5086 18.8987 20.6099 17.5401 20.6099C16.1815 20.6099 15.0801 19.5086 15.0801 18.1499C15.0801 16.7913 16.1815 15.6899 17.5401 15.6899C18.8987 15.6899 20.0001 16.7913 20.0001 18.1499Z" fill="#8322FF" stroke="#8322FF"/>
<path id="Vector_4" d="M6.46 21.1099C8.09476 21.1099 9.42 19.7847 9.42 18.1499C9.42 16.5152 8.09476 15.1899 6.46 15.1899C4.82524 15.1899 3.5 16.5152 3.5 18.1499C3.5 19.7847 4.82524 21.1099 6.46 21.1099Z" fill="#8322FF"/>
</g>
</g>
</svg>
