<svg width="24" height="24" viewBox="0 0 24 24" fill="none" xmlns="http://www.w3.org/2000/svg">
<g id="vuesax/bold/home-2">
<g id="Group">
<path id="Vector" d="M13.9931 3.19968L13.9934 3.19986L19.7533 7.2298C19.7533 7.22982 19.7533 7.22984 19.7534 7.22986C20.2226 7.55833 20.6668 8.0969 20.9943 8.72408C21.3217 9.35129 21.51 10.0244 21.51 10.6002V17.3802C21.51 19.654 19.6638 21.5002 17.39 21.5002H6.60999C4.33754 21.5002 2.48999 19.6454 2.48999 17.3702V10.4702C2.48999 9.93574 2.66038 9.29667 2.95857 8.69105C3.25662 8.0857 3.66106 7.55706 4.08751 7.22443L4.08761 7.22435L9.09624 3.31542C9.09645 3.31525 9.09667 3.31508 9.09689 3.31491C10.4337 2.27962 12.6028 2.22559 13.9931 3.19968ZM12 19.2502C12.6861 19.2502 13.25 18.6863 13.25 18.0002V15.0002C13.25 14.314 12.6861 13.7502 12 13.7502C11.3138 13.7502 10.75 14.314 10.75 15.0002V18.0002C10.75 18.6863 11.3138 19.2502 12 19.2502Z" fill="#8322FF" stroke="#8322FF"/>
</g>
</g>
</svg>
