<svg width="24" height="24" viewBox="0 0 24 24" fill="none" xmlns="http://www.w3.org/2000/svg">
<path d="M18.4864 5.93361L18.6329 6.08006H18.84H19.24C19.7022 6.08006 20.2625 6.08921 20.7118 6.33763C20.9228 6.4543 21.1112 6.62604 21.2513 6.89269C21.394 7.16413 21.5 7.55971 21.5 8.14006C21.5 8.92383 21.3496 9.38062 21.1631 9.65157C20.9865 9.90824 20.7397 10.0528 20.4096 10.1323C20.1777 10.1815 19.9274 10.2001 19.64 10.2001H4.36C4.06436 10.2001 3.80543 10.1891 3.57732 10.134L3.57733 10.134L3.57013 10.1323C3.32695 10.0774 3.13495 9.98448 2.98069 9.82379L2.98077 9.82372L2.97355 9.8165C2.69006 9.53301 2.5 9.05351 2.5 8.14006C2.5 7.55969 2.60601 7.16419 2.74876 6.89284C2.88897 6.6263 3.07748 6.45457 3.28904 6.33785C3.73964 6.08924 4.30249 6.08006 4.77 6.08006H5.17H5.37754L5.52408 5.93309L8.88966 2.55752C8.97814 2.47467 9.10223 2.48277 9.17337 2.5506C9.25654 2.64032 9.2468 2.76615 9.17645 2.83651L6.78645 5.22651L5.93289 6.08006H7.14H16.86H18.0671L17.2136 5.22651L14.8276 2.84058C14.7446 2.75209 14.7527 2.62788 14.8205 2.55669C14.9103 2.47352 15.0361 2.48326 15.1064 2.55361L18.4864 5.93361Z" fill="#8322FF" stroke="#8322FF"/>
<path d="M4.37337 13.0794L4.37332 13.0791C4.32364 12.7761 4.55572 12.5 4.86991 12.5H19.0499C19.3649 12.5 19.5994 12.7828 19.539 13.095L19.539 13.0952L18.529 18.3252L18.5287 18.3264C18.3494 19.268 18.1279 20.0327 17.6185 20.5772C17.1295 21.0999 16.2931 21.5 14.6899 21.5H9.07991C7.52136 21.5 6.65049 21.0415 6.12787 20.4606C5.58709 19.8595 5.34891 19.052 5.21341 18.2197L5.21336 18.2194L4.37337 13.0794ZM9.91991 19.65C10.5807 19.65 11.1099 19.1114 11.1099 18.45V15.15C11.1099 14.5032 10.5853 13.95 9.91991 13.95C9.24914 13.95 8.71991 14.4985 8.71991 15.15V18.45C8.71991 19.1161 9.25377 19.65 9.91991 19.65ZM14.1899 19.65C14.8561 19.65 15.3899 19.1161 15.3899 18.45V15.15C15.3899 14.4985 14.8607 13.95 14.1899 13.95C13.5338 13.95 12.9899 14.4939 12.9899 15.15V18.45C12.9899 19.1208 13.5384 19.65 14.1899 19.65Z" fill="#8322FF" stroke="#8322FF"/>
</svg>
