<svg width="50" height="50" viewBox="0 0 50 50" fill="none" xmlns="http://www.w3.org/2000/svg">
<path d="M25 0C11.2 0 0 11.2 0 25C0 38.8 11.2 50 25 50C38.8 50 50 38.8 50 25C50 11.2 38.8 0 25 0ZM33.825 31.1749C34.55 31.8999 34.55 33.1001 33.825 33.8251C33.45 34.2001 32.975 34.375 32.5 34.375C32.025 34.375 31.55 34.2001 31.175 33.8251L25 27.65L18.825 33.8251C18.45 34.2001 17.975 34.375 17.5 34.375C17.025 34.375 16.55 34.2001 16.175 33.8251C15.45 33.1001 15.45 31.8999 16.175 31.1749L22.35 25L16.175 18.8251C15.45 18.1001 15.45 16.8999 16.175 16.1749C16.9 15.4499 18.1 15.4499 18.825 16.1749L25 22.35L31.175 16.1749C31.9 15.4499 33.1 15.4499 33.825 16.1749C34.55 16.8999 34.55 18.1001 33.825 18.8251L27.65 25L33.825 31.1749Z" fill="#F04438"/>
</svg>
