<svg width="20" height="19" viewBox="0 0 20 19" fill="none" xmlns="http://www.w3.org/2000/svg">
<g id="Group 36836">
<path id="Vector" d="M16.419 3.42557H16.0381L12.819 0.28139C12.5619 0.0302269 12.1429 0.0302269 11.8762 0.28139C11.619 0.532552 11.619 0.941854 11.8762 1.20232L14.1524 3.42557H4.89524L7.17143 1.20232C7.42857 0.951157 7.42857 0.541855 7.17143 0.28139C6.91429 0.0302269 6.49524 0.0302269 6.22857 0.28139L3.01905 3.42557H2.6381C1.78095 3.42557 0 3.42557 0 5.80697C0 6.70929 0.190476 7.30464 0.590476 7.69534C0.819048 7.9279 1.09524 8.04883 1.39048 8.11394C1.66667 8.17906 1.9619 8.18836 2.24762 8.18836H16.8C17.0952 8.18836 17.3714 8.16976 17.6381 8.11394C18.4381 7.9279 19.0476 7.36976 19.0476 5.80697C19.0476 3.42557 17.2667 3.42557 16.419 3.42557Z" fill="#5D7283"/>
<path id="Vector_2" d="M16.238 9.39746H2.73326C2.14278 9.39746 1.69517 9.90909 1.7904 10.4765L2.5904 15.2579C2.85707 16.8579 3.57136 18.6998 6.74278 18.6998H12.0856C15.2952 18.6998 15.8666 17.1277 16.2095 15.3696L17.1714 10.5044C17.2856 9.92769 16.838 9.39746 16.238 9.39746ZM8.19993 15.3975C8.19993 15.7602 7.90469 16.0486 7.54278 16.0486C7.17136 16.0486 6.87612 15.7602 6.87612 15.3975V12.3277C6.87612 11.9742 7.17136 11.6765 7.54278 11.6765C7.90469 11.6765 8.19993 11.9742 8.19993 12.3277V15.3975ZM12.2761 15.3975C12.2761 15.7602 11.9809 16.0486 11.6095 16.0486C11.2475 16.0486 10.9428 15.7602 10.9428 15.3975V12.3277C10.9428 11.9742 11.2475 11.6765 11.6095 11.6765C11.9809 11.6765 12.2761 11.9742 12.2761 12.3277V15.3975Z" fill="#5D7283"/>
</g>
</svg>
