<svg width="16" height="16" viewBox="0 0 16 16" fill="none" xmlns="http://www.w3.org/2000/svg">
<path d="M7.8904 9.74916L7.8906 9.74928L9.94853 10.9774C10.1215 11.0888 10.3043 11.1266 10.4668 11.1266C10.8053 11.1266 11.1406 10.9564 11.3295 10.6363C11.6194 10.1565 11.4577 9.54251 10.9812 9.2628L8.91639 8.03056L8.91641 8.03053L8.91316 8.02865C8.91316 8.02865 8.91316 8.02864 8.91316 8.02864C8.91297 8.02838 8.90196 8.02056 8.88302 7.99927C8.86092 7.97442 8.83647 7.94066 8.81395 7.90106C8.79145 7.8615 8.77465 7.82276 8.76423 7.79016C8.75466 7.76023 8.75361 7.74543 8.75351 7.74543C8.7535 7.74543 8.7535 7.74547 8.7535 7.74555V5.01325C8.7535 4.46378 8.30297 4.01325 7.7535 4.01325C7.20402 4.01325 6.7535 4.46378 6.7535 5.01325V7.74659C6.7535 8.51549 7.22566 9.35204 7.8904 9.74916ZM1.8335 7.99992C1.8335 4.60273 4.60297 1.83325 8.00016 1.83325C11.3974 1.83325 14.1668 4.60273 14.1668 7.99992C14.1668 11.3971 11.3974 14.1666 8.00016 14.1666C4.60297 14.1666 1.8335 11.3971 1.8335 7.99992Z" fill="#617986" stroke="#617986"/>
</svg>
