<svg width="24" height="24" viewBox="0 0 24 24" fill="none" xmlns="http://www.w3.org/2000/svg">
<path fill-rule="evenodd" clip-rule="evenodd" d="M13.5154 3.33634C12.8432 2.88788 11.9673 2.88789 11.2952 3.33634L8.99444 4.87153C8.83935 4.97501 8.67055 5.0563 8.49295 5.11303L5.85818 5.95468C5.08851 6.20055 4.54238 6.88537 4.47395 7.69046L4.23969 10.4465C4.2239 10.6322 4.18222 10.8149 4.11584 10.9891L3.13111 13.5738C2.84345 14.3289 3.03837 15.1828 3.62514 15.7383L5.63381 17.6398C5.76921 17.7679 5.88602 17.9144 5.98085 18.0749L7.38769 20.4564C7.79865 21.152 8.58783 21.5321 9.38796 21.4196L12.127 21.0348C12.3116 21.0088 12.499 21.0088 12.6836 21.0348L15.4226 21.4196C16.2227 21.5321 17.0119 21.152 17.4229 20.4564L18.8297 18.0749C18.9246 17.9144 19.0414 17.7679 19.1768 17.6398L21.1854 15.7383C21.7722 15.1828 21.9671 14.3289 21.6795 13.5738L20.6947 10.9891C20.6284 10.8149 20.5867 10.6322 20.5709 10.4465L20.3366 7.69046C20.2682 6.88537 19.7221 6.20055 18.9524 5.95468L16.3176 5.11303C16.14 5.0563 15.9712 4.97501 15.8161 4.87153L13.5154 3.33634ZM8.3712 12.2973C8.66665 12.452 8.9962 12.5294 9.35983 12.5294C9.72347 12.5294 10.053 12.452 10.3485 12.2973C10.6439 12.1353 10.8788 11.9069 11.053 11.6122C11.2273 11.3176 11.3144 10.9677 11.3144 10.5625C11.3144 10.1573 11.2273 9.80744 11.053 9.51278C10.8788 9.21812 10.6439 8.99345 10.3485 8.83875C10.0606 8.67669 9.73483 8.59566 9.3712 8.59566C8.99998 8.59566 8.66665 8.67669 8.3712 8.83875C8.07574 8.99345 7.84089 9.21812 7.66665 9.51278C7.49241 9.80744 7.40529 10.1573 7.40529 10.5625C7.40529 10.9677 7.49241 11.3176 7.66665 11.6122C7.84089 11.9069 8.07574 12.1353 8.3712 12.2973ZM13.4166 8.72825L8.92801 16.4631H10.3485L14.8371 8.72825H13.4166ZM9.92801 11.3028C9.76892 11.4649 9.57953 11.5459 9.35983 11.5459C9.13256 11.5459 8.93938 11.4649 8.78029 11.3028C8.62877 11.1334 8.55301 10.8866 8.55301 10.5625C8.55301 10.2384 8.62877 9.9916 8.78029 9.82217C8.93938 9.65275 9.13256 9.56803 9.35983 9.56803C9.58711 9.56803 9.7765 9.65275 9.92801 9.82217C10.0871 9.9916 10.1667 10.2384 10.1667 10.5625C10.1667 10.8866 10.0871 11.1334 9.92801 11.3028ZM13.4621 16.3636C13.7576 16.5183 14.0871 16.5957 14.4507 16.5957C14.822 16.5957 15.1515 16.5183 15.4394 16.3636C15.7348 16.2015 15.9697 15.9732 16.1439 15.6785C16.3182 15.3839 16.4053 15.034 16.4053 14.6288C16.4053 14.2236 16.3182 13.8774 16.1439 13.5901C15.9697 13.2955 15.7348 13.0708 15.4394 12.9161C15.1515 12.754 14.8257 12.673 14.4621 12.673C14.0909 12.673 13.7576 12.754 13.4621 12.9161C13.1667 13.0708 12.9318 13.2955 12.7576 13.5901C12.5833 13.8774 12.4962 14.2236 12.4962 14.6288C12.4962 15.034 12.5833 15.3839 12.7576 15.6785C12.9318 15.9732 13.1667 16.2015 13.4621 16.3636ZM15.0189 15.3691C14.8674 15.5312 14.678 15.6122 14.4507 15.6122C14.2235 15.6122 14.0303 15.5312 13.8712 15.3691C13.7197 15.1997 13.6439 14.9529 13.6439 14.6288C13.6439 14.3047 13.7197 14.0579 13.8712 13.8885C14.0303 13.719 14.2235 13.6343 14.4507 13.6343C14.678 13.6343 14.8674 13.719 15.0189 13.8885C15.178 14.0579 15.2576 14.3047 15.2576 14.6288C15.2576 14.9529 15.178 15.1997 15.0189 15.3691Z" fill="#8322FF"/>
</svg>
