<svg width="16" height="16" viewBox="0 0 16 16" fill="none" xmlns="http://www.w3.org/2000/svg">
<g clip-path="url(#clip0_1445_1973)">
<path d="M13.7467 5.63341C13.0467 2.55341 10.3601 1.16675 8.00006 1.16675C8.00006 1.16675 8.00006 1.16675 7.9934 1.16675C5.64006 1.16675 2.94673 2.54675 2.24673 5.62675C1.46673 9.06675 3.5734 11.9801 5.48006 13.8134C6.18673 14.4934 7.0934 14.8334 8.00006 14.8334C8.90673 14.8334 9.8134 14.4934 10.5134 13.8134C12.4201 11.9801 14.5267 9.07341 13.7467 5.63341ZM8.00006 8.97341C6.84006 8.97341 5.90006 8.03341 5.90006 6.87341C5.90006 5.71341 6.84006 4.77341 8.00006 4.77341C9.16006 4.77341 10.1001 5.71341 10.1001 6.87341C10.1001 8.03341 9.16006 8.97341 8.00006 8.97341Z" fill="#FF2424"/>
</g>
<defs>
<clipPath id="clip0_1445_1973">
<rect width="16" height="16" fill="white"/>
</clipPath>
</defs>
</svg>
