<svg width="40" height="40" viewBox="0 0 40 40" fill="none" xmlns="http://www.w3.org/2000/svg">
<rect width="40" height="39.9999" rx="20" fill="#F7F7F7"/>
<path d="M29.675 13H10.3C10.2182 13.0063 10.1418 13.0433 10.0862 13.1036C10.0306 13.1639 9.99978 13.243 10 13.325V14.4C9.99927 14.5102 10.0204 14.6194 10.0623 14.7213C10.1041 14.8233 10.1658 14.9159 10.2438 14.9937L17.7438 22.4937V28.1246C17.7438 28.5039 17.9584 28.8506 18.298 29.0197L20.8293 30.2801C21.4941 30.6112 22.275 30.1276 22.275 29.385V22.4812L29.775 14.9813C29.9185 14.8265 29.9988 14.6236 30 14.4125V13.325C30 13.2388 29.9658 13.1561 29.9048 13.0952C29.8439 13.0342 29.7612 13 29.675 13Z" fill="#5D7283"/>
</svg>
