<?xml version="1.0" standalone="no"?>
<!DOCTYPE svg PUBLIC "-//W3C//DTD SVG 20010904//EN"
 "http://www.w3.org/TR/2001/REC-SVG-20010904/DTD/svg10.dtd">
<svg version="1.0" xmlns="http://www.w3.org/2000/svg"
 width="104.000000pt" height="104.000000pt" viewBox="0 0 104.000000 104.000000"
 preserveAspectRatio="xMidYMid meet">

<g transform="translate(0.000000,104.000000) scale(0.100000,-0.100000)"
fill="#000000" stroke="none">
<path d="M317 842 c-27 -30 -37 -101 -37 -287 l0 -180 56 63 56 62 232 0 c187
0 236 3 253 15 54 38 58 268 5 328 -14 15 -40 17 -282 17 -242 0 -268 -2 -283
-18z m368 -3 c4 -6 -3 -20 -16 -32 l-22 -21 21 -9 c20 -9 22 -18 22 -99 0 -87
0 -88 -25 -88 -23 0 -25 4 -25 43 l-1 42 -15 -27 c-8 -16 -19 -28 -24 -28 -5
0 -16 12 -24 28 l-15 27 -1 -42 c0 -39 -2 -43 -25 -43 -25 0 -25 1 -25 89 0
92 7 108 41 90 9 -5 22 -22 29 -39 7 -16 15 -30 19 -30 14 0 46 77 43 103 -4
34 -22 36 -22 2 0 -14 -4 -25 -10 -25 -5 0 -10 11 -10 25 0 14 -4 25 -10 25
-5 0 -10 -9 -10 -19 0 -25 -14 -34 -40 -26 -19 6 -28 44 -14 57 10 11 153 8
159 -3z m-227 -65 c15 -5 22 -14 22 -31 0 -20 -4 -24 -17 -18 -10 4 -28 10
-40 12 -34 8 -29 -23 4 -32 41 -10 53 -24 53 -61 0 -27 -6 -36 -31 -50 -55
-28 -122 -3 -106 40 5 13 10 13 36 0 30 -15 51 -12 51 6 0 5 -15 14 -34 20
-19 6 -37 18 -40 26 -25 65 25 108 102 88z m387 -8 c11 -8 16 -19 12 -29 -5
-14 -11 -15 -31 -6 -26 12 -56 6 -56 -11 0 -5 8 -10 19 -10 10 0 30 -10 45
-21 34 -27 32 -64 -6 -92 -23 -17 -34 -19 -65 -11 -31 7 -39 14 -41 36 l-3 27
31 -15 c30 -15 60 -13 60 3 0 5 -19 17 -42 28 -33 15 -44 26 -46 47 -6 55 74
90 123 54z"/>
<path d="M540 815 c0 -8 5 -15 10 -15 6 0 10 7 10 15 0 8 -4 15 -10 15 -5 0
-10 -7 -10 -15z"/>
<path d="M195 634 c-68 -46 -115 -96 -115 -124 1 -14 62 -130 138 -260 l137
-235 42 -3 c32 -2 60 5 109 28 73 36 164 116 164 146 0 10 -32 74 -71 142 -60
103 -74 122 -95 122 -22 0 -24 -2 -13 -22 11 -20 8 -26 -31 -60 -50 -45 -160
-101 -187 -96 -21 4 -145 205 -140 228 1 8 26 32 55 54 45 33 52 44 52 72 0
19 -1 34 -3 34 -1 0 -20 -12 -42 -26z m345 -314 c0 -23 -32 -43 -54 -34 -33
13 -9 54 31 54 16 0 23 -6 23 -20z m-85 -61 c0 -18 -6 -25 -24 -27 -38 -6 -50
16 -22 39 30 24 46 20 46 -12z m122 5 c5 -15 -24 -44 -43 -44 -21 0 -29 27
-13 46 14 17 50 15 56 -2z m-209 -41 c3 -17 -3 -24 -23 -29 -38 -9 -54 10 -30
36 23 26 49 22 53 -7z m129 -19 c5 -15 -24 -44 -43 -44 -21 0 -29 27 -13 46
14 17 50 15 56 -2z m111 -11 c3 -17 -3 -24 -23 -29 -38 -9 -54 10 -30 36 23
26 49 22 53 -7z m-198 -27 c0 -19 -27 -46 -46 -46 -20 0 -29 27 -14 45 16 19
60 20 60 1z m123 -20 c7 -17 -23 -46 -45 -46 -23 0 -28 22 -10 43 18 21 48 22
55 3z m-88 -37 c9 -14 -24 -49 -47 -49 -21 0 -26 45 -5 53 21 9 46 7 52 -4z"/>
<path d="M405 410 c-3 -5 -1 -10 4 -10 6 0 11 5 11 10 0 6 -2 10 -4 10 -3 0
-8 -4 -11 -10z"/>
<path d="M310 350 c0 -5 5 -10 10 -10 6 0 10 5 10 10 0 6 -4 10 -10 10 -5 0
-10 -4 -10 -10z"/>
</g>
</svg>
