<svg width="24" height="24" viewBox="0 0 24 24" fill="none" xmlns="http://www.w3.org/2000/svg">
<path d="M19.7899 14.9303C17.7299 16.9803 14.7799 17.6103 12.1899 16.8003L7.4799 21.5003C7.1399 21.8503 6.4699 22.0603 5.9899 21.9903L3.8099 21.6903C3.0899 21.5903 2.4199 20.9103 2.3099 20.1903L2.0099 18.0103C1.9399 17.5303 2.1699 16.8603 2.4999 16.5203L7.1999 11.8203C6.3999 9.22031 7.0199 6.27031 9.0799 4.22031C12.0299 1.27031 16.8199 1.27031 19.7799 4.22031C22.7399 7.17031 22.7399 11.9803 19.7899 14.9303Z" stroke="#8322FF" stroke-width="1.5" stroke-miterlimit="10" stroke-linecap="round" stroke-linejoin="round"/>
<path opacity="0.4" d="M6.88989 17.4902L9.18989 19.7902" stroke="#8322FF" stroke-width="1.5" stroke-miterlimit="10" stroke-linecap="round" stroke-linejoin="round"/>
<path opacity="0.4" d="M14.5 11C15.3284 11 16 10.3284 16 9.5C16 8.67157 15.3284 8 14.5 8C13.6716 8 13 8.67157 13 9.5C13 10.3284 13.6716 11 14.5 11Z" stroke="#8322FF" stroke-width="1.5" stroke-linecap="round" stroke-linejoin="round"/>
</svg>
