<svg width="24" height="24" viewBox="0 0 24 24" fill="none" xmlns="http://www.w3.org/2000/svg">
<path d="M22 4.52554V3.98435C22 2.57125 21.36 2 19.77 2H3.73C2.14 2 1.5 2.57125 1.5 3.98435V4.51552C1.5 5.93864 2.14 6.49987 3.73 6.49987H19.77C21.36 6.50989 22 5.93864 22 4.52554Z" stroke="#5D7283" stroke-width="1.5" stroke-linecap="round" stroke-linejoin="round"/>
<path d="M22 12.0255V11.4844C22 10.0713 21.36 9.5 19.77 9.5H3.73C2.14 9.5 1.5 10.0713 1.5 11.4844V12.0155C1.5 13.4386 2.14 13.9999 3.73 13.9999H19.77C21.36 14.0099 22 13.4386 22 12.0255Z" stroke="#5D7283" stroke-width="1.5" stroke-linecap="round" stroke-linejoin="round"/>
<path d="M22 19.27V19.23C22 17.64 21.36 17 19.77 17H3.73C2.14 17 1.5 17.64 1.5 19.23V19.27C1.5 20.86 2.14 21.5 3.73 21.5H19.77C21.36 21.5 22 20.86 22 19.27Z" stroke="#5D7283" stroke-width="1.5" stroke-linecap="round" stroke-linejoin="round"/>
</svg>
