<svg width="20" height="20" viewBox="0 0 20 20" fill="none" xmlns="http://www.w3.org/2000/svg">
<g clip-path="url(#clip0_1830_2575)">
<path d="M17.1834 7.04159C16.3084 3.19159 12.9501 1.45825 10.0001 1.45825C10.0001 1.45825 10.0001 1.45825 9.99175 1.45825C7.05008 1.45825 3.68341 3.18325 2.80841 7.03325C1.83341 11.3333 4.46675 14.9749 6.85008 17.2666C7.73341 18.1166 8.86675 18.5416 10.0001 18.5416C11.1334 18.5416 12.2667 18.1166 13.1417 17.2666C15.5251 14.9749 18.1584 11.3416 17.1834 7.04159ZM10.0001 11.2166C8.55008 11.2166 7.37508 10.0416 7.37508 8.59159C7.37508 7.14159 8.55008 5.96659 10.0001 5.96659C11.4501 5.96659 12.6251 7.14159 12.6251 8.59159C12.6251 10.0416 11.4501 11.2166 10.0001 11.2166Z" fill="#8322FF"/>
</g>
<defs>
<clipPath id="clip0_1830_2575">
<rect width="20" height="20" fill="white"/>
</clipPath>
</defs>
</svg>
