<svg width="24" height="24" viewBox="0 0 24 24" fill="none" xmlns="http://www.w3.org/2000/svg">
<path opacity="0.25" d="M21.2388 11.027V11.0288C21.2388 16.051 17.5044 20.8095 12.3714 22.2015C12.1289 22.2662 11.8598 22.2662 11.6174 22.2015C6.48439 20.8095 2.75 16.051 2.75 11.0288V6.19735C2.75 5.92896 2.85836 5.59254 3.0744 5.27722C3.2899 4.96271 3.56919 4.73266 3.83472 4.62777L3.83473 4.62778L3.8387 4.62619L10.0858 2.11724C10.0859 2.11719 10.086 2.11714 10.0862 2.11708C11.3091 1.62765 12.6908 1.62764 13.9137 2.11705C13.9139 2.11712 13.914 2.11718 13.9142 2.11724L20.1613 4.62619L20.1621 4.62653C20.4238 4.73122 20.7045 4.96228 20.9224 5.27865C21.1405 5.59549 21.2498 5.93104 21.25 6.19657C21.25 6.19683 21.25 6.19709 21.25 6.19735L21.2388 11.027Z" stroke="#8322FF" stroke-width="1.5"/>
<path d="M15 10.0303C15 8.35758 13.656 7 12 7C10.344 7 9 8.35758 9 10.0303C9 11.3879 9.888 12.5151 11.1 12.903V16.0909C11.1 16.5879 11.508 17 12 17C12.492 17 12.9 16.5879 12.9 16.0909V12.903C14.112 12.5151 15 11.3879 15 10.0303Z" fill="#8322FF"/>
</svg>
