<svg width="110" height="110" viewBox="0 0 110 110" fill="none" xmlns="http://www.w3.org/2000/svg">
<path d="M78.6192 18.0088C78.6192 18.0088 75.0952 27.611 79.5234 33.0612C83.9515 38.5095 100.561 51.0285 104.608 45.3964C108.655 39.7644 87.01 0.436806 78.6192 18.0088Z" fill="#E9D8FF"/>
<path d="M64.0907 102.549C46.7671 88.3384 43.8091 93.0436 28.2634 101.796C11.4213 111.278 1.20797 102.506 0.109293 87.4926C-2.13908 56.7811 31.0874 70.304 27.5666 37.7151C24.9722 13.7028 34.0279 3.09868 46.2377 0.583029C58.3183 -1.90496 75.2513 3.03742 74.3679 25.8008C73.8783 38.3929 88.9919 43.444 98.805 49.3922C113.565 58.3363 111.433 81.6649 105.45 92.2374C95.3926 110.007 80.287 115.833 64.0907 102.549Z" fill="#E9D8FF"/>
<path d="M79.7971 12.1318H73.7791C65.9911 12.1318 59.6191 20.0286 59.6191 29.6801V80.1296C59.6191 89.7811 65.9911 97.6779 73.7791 97.6779H79.7971C87.5851 97.6779 93.9571 89.7811 93.9571 80.1296V29.6801C93.9571 20.0286 87.5851 12.1318 79.7971 12.1318ZM90.9481 73.9877C90.9481 83.6392 84.5761 91.536 76.7881 91.536C69.0001 91.536 62.6281 83.6392 62.6281 73.9877V34.5059C62.6281 24.8544 69.0001 16.9576 76.7881 16.9576C84.5761 16.9576 90.9481 24.8544 90.9481 34.5059V73.9877Z" fill="#933FFD"/>
<path d="M77.2727 12.1318H71.2547C63.4667 12.1318 57.0947 20.0286 57.0947 29.6801V80.1296C57.0947 89.7811 63.4667 97.6779 71.2547 97.6779H77.2727C85.0607 97.6779 91.4327 89.7811 91.4327 80.1296V29.6801C91.4327 20.0286 85.0607 12.1318 77.2727 12.1318ZM88.4237 73.9877C88.4237 83.6392 82.0517 91.536 74.2637 91.536C66.4757 91.536 60.1037 83.6392 60.1037 73.9877V34.5059C60.1037 24.8544 66.4757 16.9576 74.2637 16.9576C82.0517 16.9576 88.4237 24.8544 88.4237 34.5059V73.9877Z" fill="#C18FFF"/>
<path d="M77.178 12H71.16C63.372 12 57 19.8967 57 29.5483V79.9977C57 89.6493 63.372 97.546 71.16 97.546H77.178C84.966 97.546 91.3379 89.6493 91.3379 79.9977V29.5483C91.3379 19.8967 84.966 12 77.178 12ZM88.329 73.8558C88.329 83.5074 81.957 91.4041 74.169 91.4041C66.381 91.4041 60.009 83.5074 60.009 73.8558V34.3741C60.009 24.7225 66.381 16.8258 74.169 16.8258C81.957 16.8258 88.329 24.7225 88.329 34.3741V73.8558Z" fill="#C18FFF"/>
<path d="M67.646 108.667H89.8746C97.0662 108.667 102.95 101.375 102.95 92.4625V57.3185C102.95 54.8009 101.303 52.7615 99.2731 52.7615H58.2474C56.2159 52.7615 54.5703 54.8028 54.5703 57.3185V92.4625C54.5703 101.375 60.4544 108.667 67.646 108.667Z" fill="#7B16FC"/>
<path d="M61.1485 108.667H83.3772C90.5688 108.667 96.4528 101.375 96.4528 92.4626V57.9252C96.4528 55.0716 94.5871 52.7595 92.2845 52.7595H52.2396C49.937 52.7595 48.0713 55.0716 48.0713 57.9252V92.4606C48.0729 101.375 53.9569 108.667 61.1485 108.667Z" fill="#8322FF"/>
<path d="M77.8387 71.9007C77.8387 74.9934 75.8151 77.4992 73.3212 77.4992C70.8257 77.4992 68.8037 74.9914 68.8037 71.9007C68.8037 68.808 70.8272 66.3022 73.3212 66.3022C75.8151 66.3003 77.8387 68.808 77.8387 71.9007Z" fill="#D2AEFF"/>
<path d="M77.6984 87.951H68.9648L70.9501 71.9006H75.7132L77.6984 87.951Z" fill="#D2AEFF"/>
<path d="M78.8055 71.9007C78.8055 74.9934 76.7835 77.4992 74.288 77.4992C71.7925 77.4992 69.7705 74.9914 69.7705 71.9007C69.7705 68.808 71.794 66.3022 74.288 66.3022C76.7835 66.3003 78.8055 68.808 78.8055 71.9007Z" fill="#EBF9FF"/>
<path d="M78.6652 87.951H69.9316L71.9153 71.9006H76.68L78.6652 87.951Z" fill="#E7F4FA"/>
<path d="M92.276 52.7595H91.7178C92.0862 55.1902 92.2887 57.696 92.2887 60.2591C92.2887 82.5541 77.7046 100.628 59.7144 100.628C55.9527 100.628 52.3442 99.8277 48.9844 98.3752C50.9027 104.383 55.6322 108.665 61.1399 108.665H83.3686C90.5602 108.665 96.4442 101.373 96.4442 92.4606V57.9252C96.4442 55.0716 94.5785 52.7595 92.276 52.7595Z" fill="#8525FF"/>
<path d="M19.5438 66.8539C19.3636 68.1977 18.7976 71.5533 17.2269 71.1758C17.0164 71.1244 17.0387 70.7075 17.2524 70.7588C18.5552 71.0711 19.0559 67.9547 19.2074 66.8223C19.2425 66.5595 19.5805 66.5872 19.5438 66.8539Z" fill="#696B32"/>
<path d="M17.1818 79.8489C21.9815 85.2221 29.3884 84.7577 33.7241 78.8094C38.0598 72.8612 37.685 63.6819 32.8853 58.3087C28.0856 52.9355 20.6787 53.3999 16.343 59.3482C12.0057 65.2964 12.3804 74.4757 17.1818 79.8489ZM28.9004 63.7728C31.2652 66.4209 31.4502 70.9423 29.3134 73.871C27.1767 76.8017 23.5282 77.0309 21.1651 74.3828C18.8003 71.7348 18.6153 67.2133 20.7521 64.2827C22.8872 61.354 26.5356 61.1248 28.9004 63.7728Z" fill="#9747FF"/>
<path d="M51.7604 33.1444C52.6518 34.1444 52.7235 35.8656 51.9167 36.9723L33.4019 62.3699C32.595 63.4765 31.2061 63.5635 30.3131 62.5636C29.4202 61.5636 29.35 59.8424 30.1569 58.7357L48.6717 33.3381C49.4785 32.2334 50.869 32.1445 51.7604 33.1444Z" fill="#9747FF"/>
<path d="M45.6089 38.0789L45.6185 38.0907C46.6183 39.2092 46.6964 41.138 45.7939 42.3751L44.0701 44.7405C43.1676 45.9796 41.6113 46.0764 40.6131 44.9579L40.6035 44.946C39.6053 43.8275 39.5256 41.8988 40.4281 40.6617L42.1518 38.2963C43.0544 37.0572 44.6091 36.9604 45.6089 38.0789Z" fill="#9747FF"/>
<path d="M46.5445 30.3481L50.1084 34.338C50.9695 35.3024 51.0381 36.9643 50.2599 38.0314C49.4817 39.0986 48.1407 39.1835 47.2796 38.2192L43.7157 34.2293C42.8546 33.2649 42.786 31.603 43.5642 30.5359C44.3424 29.4687 45.6834 29.3838 46.5445 30.3481Z" fill="#9747FF"/>
<path d="M52.2438 33.6542C53.1368 34.6541 53.2069 36.3754 52.4001 37.482L33.8852 62.8796C33.0784 63.9863 31.6895 64.0732 30.7965 63.0733C29.9036 62.0734 29.8334 60.3521 30.6403 59.2455L49.1551 33.8479C49.9619 32.7432 51.3508 32.6543 52.2438 33.6542Z" fill="#8525FF"/>
<path d="M46.0201 38.5334C47.0518 39.6875 47.1332 41.6794 46.2019 42.956L44.5196 45.2642C43.5884 46.5428 41.9826 46.6436 40.9509 45.4875C39.9208 44.3334 39.8395 42.3434 40.7707 41.0649L42.4546 38.7567C43.3843 37.4801 44.99 37.3793 46.0201 38.5334Z" fill="#8525FF"/>
<path d="M46.8668 30.7077L50.4307 34.6976C51.2918 35.662 51.3603 37.3239 50.5822 38.3911C49.804 39.4582 48.4629 39.5432 47.6019 38.5788L44.038 34.5889C43.1769 33.6246 43.1083 31.9626 43.8865 30.8955C44.6646 29.8284 46.0057 29.7434 46.8668 30.7077Z" fill="#8525FF"/>
<path d="M38.484 56.5681L46.3198 45.8217L40.5442 45.6577L32.71 56.4061L38.484 56.5681Z" fill="#8322FF"/>
<path d="M17.772 80.5545C22.5718 85.9277 29.9786 85.4633 34.3143 79.515C38.65 73.5668 38.2753 64.3875 33.4756 59.0143C28.6759 53.6392 21.269 54.1056 16.9333 60.0538C12.596 66.0021 12.9723 75.1813 17.772 80.5545ZM29.4923 64.4784C31.8571 67.1265 32.042 71.6479 29.9053 74.5786C27.7685 77.5092 24.1201 77.7385 21.7553 75.0904C19.3905 72.4424 19.2056 67.9209 21.3423 64.9903C23.4791 62.0596 27.1275 61.8304 29.4923 64.4784Z" fill="#8525FF"/>
<path d="M21.3333 64.9902C23.4701 62.0596 27.1185 61.8303 29.4833 64.4784C31.5387 66.7806 31.9453 70.4978 30.6123 73.3553L36.8806 73.7683C37.8868 69.5927 37.3941 65.4843 35.42 61.8303L16.4571 60.7612C16.3789 60.8818 16.2944 60.9984 16.2211 61.1209C16.1796 61.1881 16.1413 61.2572 16.1015 61.3264C14.2231 64.5614 13.5661 68.5038 14.0795 72.2368L20.3351 72.6597C19.4517 70.1598 19.7627 67.1462 21.3333 64.9902Z" fill="#8322FF"/>
</svg>
