<?xml version="1.0" encoding="UTF-8"?>
<!DOCTYPE svg PUBLIC "-//W3C//DTD SVG 1.1//EN" "http://www.w3.org/Graphics/SVG/1.1/DTD/svg11.dtd">
<svg xmlns="http://www.w3.org/2000/svg" version="1.1" width="512px" height="512px" style="shape-rendering:geometricPrecision; text-rendering:geometricPrecision; image-rendering:optimizeQuality; fill-rule:evenodd; clip-rule:evenodd" xmlns:xlink="http://www.w3.org/1999/xlink">
<g><path style="opacity:0.977" fill="#8f53dc" d="M 261.5,20.5 C 273.658,20.1535 278.158,25.8202 275,37.5C 270.167,42.3333 265.333,47.1667 260.5,52C 341.865,57.2352 401.365,95.7352 439,167.5C 466.46,230.304 464.794,292.304 434,353.5C 420.134,378.036 401.968,398.869 379.5,416C 365.866,416.353 361.699,410.187 367,397.5C 420.106,353.218 442.439,296.551 434,227.5C 422.307,164.575 387.807,119.075 330.5,91C 307.291,80.4471 282.957,75.1138 257.5,75C 263,80.5 268.5,86 274,91.5C 278.558,99.6407 276.725,105.807 268.5,110C 265.406,110.652 262.406,110.318 259.5,109C 247,96.5 234.5,84 222,71.5C 220,67.1667 220,62.8333 222,58.5C 234.759,45.2382 247.925,32.5715 261.5,20.5 Z"/></g>
<g><path style="opacity:0.977" fill="#8f53dc" d="M 131.5,94.5 C 145.121,94.6205 149.288,100.954 144,113.5C 99.1024,150.133 75.9357,197.633 74.5,256C 77.3619,322.418 106.362,373.752 161.5,410C 189.871,426.79 220.538,435.457 253.5,436C 248,430.5 242.5,425 237,419.5C 232.442,411.359 234.275,405.193 242.5,401C 245.594,400.348 248.594,400.682 251.5,402C 264,414.5 276.5,427 289,439.5C 291,443.833 291,448.167 289,452.5C 276.438,465.731 263.272,478.231 249.5,490C 237.327,490.825 232.827,485.325 236,473.5C 240.833,468.667 245.667,463.833 250.5,459C 169.132,453.764 109.632,415.264 72,343.5C 46.7758,286.441 46.1091,229.108 70,171.5C 84.4353,140.908 104.935,115.241 131.5,94.5 Z"/></g>
<g><path style="opacity:0.977" fill="#8f53dc" d="M 246.5,137.5 C 298.754,136.531 337.254,158.865 362,204.5C 381.128,250.024 375.795,292.357 346,331.5C 308.452,371.429 263.619,382.595 211.5,365C 173.213,348.596 149.38,320.096 140,279.5C 131.796,224.051 151.296,181.551 198.5,152C 213.742,144.193 229.742,139.36 246.5,137.5 Z M 256.5,159.5 C 305.269,163.633 336.103,189.3 349,236.5C 355.415,285.176 336.915,320.676 293.5,343C 246.06,359.847 206.894,348.347 176,308.5C 159.238,281.432 155.905,252.766 166,222.5C 183.187,182.808 213.354,161.808 256.5,159.5 Z"/></g>
<g><path style="opacity:0.973" fill="#8f53dc" d="M 251.5,180.5 C 257.07,179.416 261.57,181.083 265,185.5C 266.224,190.386 266.891,195.386 267,200.5C 275.198,202.516 282.698,206.016 289.5,211C 294.367,216.4 294.7,222.067 290.5,228C 287.922,229.783 285.089,230.949 282,231.5C 275.949,228.56 269.783,225.727 263.5,223C 255.605,220.9 248.438,222.4 242,227.5C 239.523,231.78 240.356,235.28 244.5,238C 257.037,243.287 269.37,248.954 281.5,255C 295.014,267.292 296.847,281.126 287,296.5C 281.494,302.588 274.827,306.922 267,309.5C 266.667,314.167 266.333,318.833 266,323.5C 262.96,329.603 258.126,331.769 251.5,330C 249.376,328.878 247.543,327.378 246,325.5C 244.603,320.292 244.103,314.959 244.5,309.5C 235.127,307.881 226.96,303.881 220,297.5C 215.222,285.278 219.388,279.445 232.5,280C 239.075,284.787 246.408,287.62 254.5,288.5C 260.734,288.465 265.901,286.132 270,281.5C 271.123,278.044 270.29,275.21 267.5,273C 255.047,267.607 242.714,261.94 230.5,256C 213.981,241.001 213.315,225.334 228.5,209C 233.202,205.149 238.535,202.649 244.5,201.5C 244.334,196.821 244.501,192.155 245,187.5C 246.694,184.642 248.861,182.309 251.5,180.5 Z"/></g>
</svg>
