<svg width="40" height="40" viewBox="0 0 40 40" fill="none" xmlns="http://www.w3.org/2000/svg">
<rect width="40" height="40" fill="#595959"/>
<g id="Product Details" clip-path="url(#clip0_0_1)">
<rect width="360" height="2038" transform="translate(-304 -56)" fill="#F7F7F7"/>
<g id="Frame 37171">
<g id="Home-Header">
<mask id="path-1-inside-1_0_1" fill="white">
<path d="M-304 -12H56V52H-304V-12Z"/>
</mask>
<path d="M-304 -12H56V52H-304V-12Z" fill="white"/>
<path d="M56 51H-304V53H56V51Z" fill="#F1F1F5" mask="url(#path-1-inside-1_0_1)"/>
<g id="Frame 33">
<g id="Group 36843">
<rect id="Rectangle 4385" width="40" height="39.9999" rx="20" fill="#F7F7F7"/>
<path id="Vector" d="M22.4249 24.9933L17.6152 22.3531C17.1535 22.8144 16.5664 23.1277 15.9281 23.2537C15.2897 23.3796 14.6286 23.3125 14.028 23.0608C13.4275 22.8092 12.9144 22.3842 12.5535 21.8395C12.1926 21.2948 12 20.6547 12 20C12 19.3453 12.1926 18.7052 12.5535 18.1605C12.9144 17.6158 13.4275 17.1908 14.028 16.9392C14.6286 16.6875 15.2897 16.6204 15.9281 16.7463C16.5664 16.8723 17.1535 17.1856 17.6152 17.6469L22.4249 15.0067C22.2599 14.2278 22.3791 13.4151 22.7605 12.7173C23.142 12.0195 23.7602 11.4833 24.5023 11.2065C25.2443 10.9298 26.0605 10.9312 26.8016 11.2104C27.5428 11.4896 28.1593 12.0279 28.5384 12.727C28.9176 13.426 29.034 14.2391 28.8665 15.0175C28.699 15.7959 28.2587 16.4876 27.6261 16.9661C26.9935 17.4446 26.2109 17.6779 25.4214 17.6234C24.6319 17.5689 23.8883 17.2302 23.3266 16.6693L18.5169 19.3094C18.6127 19.7644 18.6127 20.2346 18.5169 20.6896L23.3266 23.3307C23.8883 22.7698 24.6319 22.4311 25.4214 22.3766C26.2109 22.3221 26.9935 22.5554 27.6261 23.0339C28.2587 23.5124 28.699 24.2041 28.8665 24.9825C29.034 25.7609 28.9176 26.574 28.5384 27.273C28.1593 27.9721 27.5428 28.5104 26.8016 28.7896C26.0605 29.0688 25.2443 29.0702 24.5023 28.7935C23.7602 28.5168 23.142 27.9805 22.7605 27.2827C22.3791 26.5849 22.2599 25.7722 22.4249 24.9933Z" fill="#5D7283"/>
</g>
</g>
</g>
</g>
</g>
<defs>
<clipPath id="clip0_0_1">
<rect width="360" height="2038" fill="white" transform="translate(-304 -56)"/>
</clipPath>
</defs>
</svg>
