<svg width="24" height="24" viewBox="0 0 24 24" fill="none" xmlns="http://www.w3.org/2000/svg">
<path opacity="0.25" d="M18.6667 18.7966H17.8222C16.7416 18.7966 15.7066 19.2116 14.9405 19.9697C14.9399 19.9703 14.9394 19.9708 14.9388 19.9714L13.0423 21.8281C13.0422 21.8282 13.0422 21.8283 13.0421 21.8283C13.0421 21.8284 13.042 21.8284 13.042 21.8284C12.4668 22.3906 11.5217 22.3905 10.9466 21.8281L9.05004 19.9714C9.04951 19.9708 9.04897 19.9703 9.04843 19.9698C8.28134 19.2107 7.23486 18.7966 6.16667 18.7966H5.33333C3.88982 18.7966 2.75 17.6553 2.75 16.2776V4.26902C2.75 2.89126 3.88982 1.75 5.33333 1.75H18.6667C20.1102 1.75 21.25 2.89126 21.25 4.26902V16.2776C21.25 17.646 20.1085 18.7966 18.6667 18.7966Z" stroke="#8322FF" stroke-width="1.5"/>
<path d="M10.3093 14.5253H7.51257C7.05341 14.5253 6.62556 14.3062 6.35424 13.9305C6.09336 13.5757 6.03074 13.1374 6.15597 12.72C6.52121 11.6034 7.41865 10.9981 8.21174 10.4555C9.04657 9.89199 9.51616 9.53723 9.51616 8.93197C9.51616 8.38934 9.07787 7.95105 8.53523 7.95105C7.99259 7.95105 7.55432 8.38934 7.55432 8.93197C7.55432 9.35982 7.19952 9.71463 6.77167 9.71463C6.34382 9.71463 5.98901 9.35982 5.98901 8.93197C5.98901 7.53364 7.12646 6.38574 8.53523 6.38574C9.94401 6.38574 11.0815 7.5232 11.0815 8.93197C11.0815 10.4034 9.97533 11.1547 9.08832 11.7599C8.53524 12.1356 8.01346 12.4904 7.75258 12.96H10.2988C10.7267 12.96 11.0815 13.3148 11.0815 13.7427C11.0815 14.1705 10.7371 14.5253 10.3093 14.5253Z" fill="#8322FF"/>
<path d="M16.2156 14.5249C15.7877 14.5249 15.4329 14.1701 15.4329 13.7422V13.0222H13.3876C13.3876 13.0222 13.3876 13.0222 13.3772 13.0222C12.8658 13.0222 12.3962 12.7509 12.1354 12.3126C11.8745 11.8639 11.8745 11.3108 12.1354 10.8725C12.845 9.65157 13.6694 8.26363 14.4207 7.05313C14.7546 6.52093 15.3912 6.28096 15.986 6.44792C16.5808 6.62532 16.9982 7.16794 16.9878 7.79406V11.4673H17.2174C17.6452 11.4673 18 11.8221 18 12.25C18 12.6778 17.6452 13.0326 17.2174 13.0326H16.9982V13.7527C16.9982 14.1805 16.6539 14.5249 16.2156 14.5249ZM15.4329 8.39933C14.8172 9.40113 14.1807 10.476 13.6067 11.4569H15.4329V8.39933Z" fill="#8322FF"/>
</svg>
