<svg width="24" height="24" viewBox="0 0 24 24" fill="none" xmlns="http://www.w3.org/2000/svg">
<path opacity="0.25" d="M7.391 1.75H16.609C18.4618 1.75 19.8507 2.29939 20.7757 3.22433C21.7006 4.14927 22.25 5.53815 22.25 7.391V16.609C22.25 18.4618 21.7006 19.8507 20.7757 20.7757C19.8507 21.7006 18.4618 22.25 16.609 22.25H7.391C5.53815 22.25 4.14927 21.7006 3.22433 20.7757C2.29939 19.8507 1.75 18.4618 1.75 16.609V7.391C1.75 5.53815 2.29939 4.14927 3.22433 3.22433C4.14927 2.29939 5.53815 1.75 7.391 1.75Z" stroke="#8322FF" stroke-width="1.5"/>
<path d="M18.9411 8.55742C18.9411 9.00842 18.5781 9.38242 18.1161 9.38242H12.3411C11.8901 9.38242 11.5161 9.00842 11.5161 8.55742C11.5161 8.10642 11.8901 7.73242 12.3411 7.73242H18.1161C18.5781 7.73242 18.9411 8.10642 18.9411 8.55742Z" fill="#8322FF"/>
<path d="M9.76697 7.49021L7.29197 9.96521C7.12697 10.1302 6.91797 10.2072 6.70897 10.2072C6.49997 10.2072 6.27997 10.1302 6.12597 9.96521L5.30097 9.14021C4.97097 8.82121 4.97097 8.29321 5.30097 7.97421C5.61997 7.65521 6.13697 7.65521 6.46697 7.97421L6.70897 8.21621L8.60097 6.32421C8.91997 6.00521 9.43697 6.00521 9.76697 6.32421C10.086 6.64321 10.086 7.17121 9.76697 7.49021Z" fill="#8322FF"/>
<path d="M18.9411 16.2566C18.9411 16.7076 18.5781 17.0816 18.1161 17.0816H12.3411C11.8901 17.0816 11.5161 16.7076 11.5161 16.2566C11.5161 15.8056 11.8901 15.4316 12.3411 15.4316H18.1161C18.5781 15.4316 18.9411 15.8056 18.9411 16.2566Z" fill="#8322FF"/>
<path d="M9.76697 15.1904L7.29197 17.6654C7.12697 17.8304 6.91797 17.9074 6.70897 17.9074C6.49997 17.9074 6.27997 17.8304 6.12597 17.6654L5.30097 16.8404C4.97097 16.5214 4.97097 15.9934 5.30097 15.6744C5.61997 15.3554 6.13697 15.3554 6.46697 15.6744L6.70897 15.9164L8.60097 14.0244C8.91997 13.7054 9.43697 13.7054 9.76697 14.0244C10.086 14.3434 10.086 14.8714 9.76697 15.1904Z" fill="#8322FF"/>
</svg>
