<svg width="24" height="24" viewBox="0 0 24 24" fill="none" xmlns="http://www.w3.org/2000/svg">
<path d="M19.06 18.6703L16.92 14.4004L14.78 18.6703" stroke="#8322FF" stroke-width="1.5" stroke-linecap="round" stroke-linejoin="round"/>
<path d="M15.1699 17.9102H18.6899" stroke="#8322FF" stroke-width="1.5" stroke-linecap="round" stroke-linejoin="round"/>
<path d="M16.9201 21.9998C14.1201 21.9998 11.8401 19.7298 11.8401 16.9198C11.8401 14.1198 14.1101 11.8398 16.9201 11.8398C19.7201 11.8398 22.0001 14.1098 22.0001 16.9198C22.0001 19.7298 19.7301 21.9998 16.9201 21.9998Z" stroke="#8322FF" stroke-width="1.5" stroke-linecap="round" stroke-linejoin="round"/>
<path d="M5.02 2H8.94C11.01 2 12.01 3.00002 11.96 5.02002V8.94C12.01 11.01 11.01 12.01 8.94 11.96H5.02C3 12 2 11 2 8.92999V5.01001C2 3.00001 3 2 5.02 2Z" stroke="#8322FF" stroke-width="1.5" stroke-linecap="round" stroke-linejoin="round"/>
<path d="M9.00995 5.84961H4.94995" stroke="#8322FF" stroke-width="1.5" stroke-linecap="round" stroke-linejoin="round"/>
<path d="M6.96997 5.16992V5.84991" stroke="#8322FF" stroke-width="1.5" stroke-linecap="round" stroke-linejoin="round"/>
<path d="M7.98994 5.83984C7.98994 7.58984 6.61994 9.00983 4.93994 9.00983" stroke="#8322FF" stroke-width="1.5" stroke-linecap="round" stroke-linejoin="round"/>
<path d="M9.0099 9.01001C8.2799 9.01001 7.61991 8.62 7.15991 8" stroke="#8322FF" stroke-width="1.5" stroke-linecap="round" stroke-linejoin="round"/>
<path opacity="0.4" d="M2 15C2 18.87 5.13 22 9 22L7.95 20.25" stroke="#8322FF" stroke-width="1.5" stroke-linecap="round" stroke-linejoin="round"/>
<path opacity="0.4" d="M22 9C22 5.13 18.87 2 15 2L16.05 3.75" stroke="#8322FF" stroke-width="1.5" stroke-linecap="round" stroke-linejoin="round"/>
</svg>
